<?xml version="1.0" encoding="utf-8"?>
<!-- Generator: Adobe Illustrator 21.1.0, SVG Export Plug-In . SVG Version: 6.00 Build 0)  -->
<svg version="1.1" xmlns="http://www.w3.org/2000/svg" xmlns:xlink="http://www.w3.org/1999/xlink" x="0px" y="0px"
	 viewBox="0 0 33.8 17.1" style="enable-background:new 0 0 33.8 17.1;" xml:space="preserve">
<style type="text/css">
	.st0{display:none;}
	.st1{display:inline;fill:#0A0101;}
	.st2{fill:#FFFFFF;}
</style>
<g id="Layer_2" class="st0">
	<rect x="-4.1" y="-2.6" class="st1" width="43.1" height="21.9"/>
</g>
<g id="Layer_1">
	<path class="st2" d="M8.8,0C3.7,0,0,3.8,0,8.6c0,4.7,3.7,8.4,8.7,8.5c5.1,0,8.8-3.8,8.8-8.6C17.5,3.8,13.8,0,8.8,0z M8.7,13.8
		c-2.9,0-5-2.4-5-5.2V8.5c0-2.9,2-5.1,5-5.1c2.9,0,5,2.4,5,5.2S11.6,13.7,8.7,13.8z"/>
	<path class="st2" d="M27.8,17.2c3.5,0,6-1.9,6-5.1V12c0-2.9-1.9-4.1-5.2-5C25.7,6.3,25,5.9,25,4.8V4.7c0-0.8,0.7-1.5,2.1-1.5
		s2.9,0.7,4.3,1.6L33.2,2c-1.6-1.3-3.6-2-6.1-2c-3.3,0-5.8,2-5.8,5c0,3.3,2.1,4.2,5.5,5c2.8,0.7,3.3,1.2,3.3,2.1
		c0,1-0.9,1.5-2.4,1.5c-1.9,0-3.4-0.7-4.9-2l-2,2.7C22.8,16.1,25.3,17,27.8,17.2z"/>
</g>
</svg>
