<?xml version="1.0" encoding="utf-8"?>
<!-- Generator: Adobe Illustrator 21.1.0, SVG Export Plug-In . SVG Version: 6.00 Build 0)  -->
<svg version="1.1" id="レイヤー_1" xmlns="http://www.w3.org/2000/svg" xmlns:xlink="http://www.w3.org/1999/xlink" x="0px"
	 y="0px" viewBox="0 0 33.9 17.2" style="enable-background:new 0 0 33.9 17.2;" xml:space="preserve">
<style type="text/css">
	.st0{fill:#FFFFFF;}
</style>
<path class="st0" d="M0,0.2h3.6v6.5h6.7V0.2h3.6v16.5h-3.6v-6.6H3.6v6.6H0V0.2z M19.6,16.8h3.7v-5.3h2.9l3.5,5.3h4.2l-4-5.9
	c2-0.8,3.5-2.4,3.5-5.1V5.7c0-1.5-0.5-2.9-1.5-3.7c-1.1-1.1-2.7-1.7-4.8-1.7h-7.5C19.6,0.3,19.6,16.8,19.6,16.8z M23.3,8.3V3.6h3.6
	c1.8,0,2.9,0.8,2.9,2.4c0,1.4-1,2.4-2.8,2.4C27,8.4,23.3,8.3,23.3,8.3z"/>
</svg>
