<svg xmlns="http://www.w3.org/2000/svg" viewBox="0 0 842.27 236.21"><defs><style>.cls-1,.cls-3{fill:none;stroke:#000;stroke-miterlimit:10;}.cls-1{stroke-width:5px;}.cls-2{fill:red;}.cls-3{stroke-width:3px;}</style></defs><title>アセット 1</title><g id="レイヤー_2" data-name="レイヤー 2"><g id="レイヤー_1-2" data-name="レイヤー 1"><path d="M34.78,33a3.17,3.17,0,0,0,.62,1.78,3.51,3.51,0,0,0,2.81,1.13c1.85,0,3-.82,3-2.16a1.81,1.81,0,0,0-1-1.68,19.4,19.4,0,0,0-3.6-1,9.3,9.3,0,0,1-3.86-1.39,5.4,5.4,0,0,1-2.33-4.61c0-3.7,3-6,7.7-6,3,0,5.38.94,6.67,2.74a6.69,6.69,0,0,1,1.2,2.88l-5.09.55c-.29-1.56-1.15-2.21-3-2.21-1.46,0-2.54.79-2.54,1.9a1.65,1.65,0,0,0,1.13,1.54c.48.22.48.22,3.31.79a11.56,11.56,0,0,1,3.89,1.37,5.36,5.36,0,0,1,2.59,4.9,6,6,0,0,1-1.68,4.42c-1.39,1.34-3.5,2-6.31,2a11.39,11.39,0,0,1-5.35-1.18,5.68,5.68,0,0,1-2.59-3.07,9,9,0,0,1-.53-2.23Z"/><path d="M58.33,30.17a3.37,3.37,0,0,0-.67-1.42,2.54,2.54,0,0,0-2-.84c-1.94,0-3.1,1.54-3.1,4.18s1.22,4.27,3.14,4.27A2.77,2.77,0,0,0,58,35.3a2.36,2.36,0,0,0,.43-1.1l4.42.7a7.22,7.22,0,0,1-1,2.38C60.61,39,58.42,40,55.64,40A7.67,7.67,0,0,1,50,38a8.12,8.12,0,0,1-2.16-5.83c0-4.8,3-7.87,7.7-7.87,3.7,0,6.26,1.82,7.06,5Z"/><path d="M74.31,29.45c0-1.15-.7-1.68-2.28-1.68s-2.35.5-2.71,1.68l-4.58-.74a5.15,5.15,0,0,1,2-2.9,9.21,9.21,0,0,1,5.4-1.37,10.43,10.43,0,0,1,4.44.84c1.54.84,2.21,2.16,2.21,4.32v6.48A27.78,27.78,0,0,0,79,39.48H74.31v-1.1a7,7,0,0,1-4.66,1.44,5.87,5.87,0,0,1-4.15-1.32,4.32,4.32,0,0,1-1.32-3.26,4,4,0,0,1,1.75-3.5,10,10,0,0,1,5-1.56c.94-.1,1.66-.12,3.38-.17Zm0,3.62a14.24,14.24,0,0,0-4.15.48,1.78,1.78,0,0,0-1.39,1.58c0,.86.72,1.37,2,1.37a4.45,4.45,0,0,0,2.71-.91,2.42,2.42,0,0,0,.86-1.85Z"/><path d="M86.53,19.51a24.54,24.54,0,0,0-.19,3.62V35.85a28.84,28.84,0,0,0,.19,3.62h-5a24.18,24.18,0,0,0,.19-3.62V23.13a23,23,0,0,0-.19-3.62Z"/><path d="M98.67,29.45c0-1.15-.7-1.68-2.28-1.68s-2.35.5-2.71,1.68l-4.58-.74a5.15,5.15,0,0,1,2-2.9,9.21,9.21,0,0,1,5.4-1.37,10.42,10.42,0,0,1,4.44.84c1.54.84,2.21,2.16,2.21,4.32v6.48a27.78,27.78,0,0,0,.17,3.41H98.67v-1.1A7,7,0,0,1,94,39.81a5.87,5.87,0,0,1-4.15-1.32,4.32,4.32,0,0,1-1.32-3.26,4,4,0,0,1,1.75-3.5,10,10,0,0,1,5-1.56c.94-.1,1.66-.12,3.38-.17Zm0,3.62a14.25,14.25,0,0,0-4.15.48,1.77,1.77,0,0,0-1.39,1.58c0,.86.72,1.37,2,1.37a4.44,4.44,0,0,0,2.71-.91,2.42,2.42,0,0,0,.86-1.85Z"/><path d="M37.64,62.18a33.88,33.88,0,0,0-4.1.14V58a24.83,24.83,0,0,0,4.18.19h9.6V48.76H38c-2.21,0-3.12,0-4.13.12V44.52a25.14,25.14,0,0,0,4.2.22h11c1.3,0,2,0,2.66-.07,0,.84-.07,1.25-.07,2.45V59.64a36.19,36.19,0,0,0,.14,4H47.31V62.18Z"/><path d="M56.09,51.26a34,34,0,0,0,4.92.22H72.49a39.39,39.39,0,0,0,4.92-.22v4.63a46.47,46.47,0,0,0-4.94-.14H61c-2.69,0-3.48,0-4.94.14Z"/><path d="M84,64.15c.1-1,.12-1.7.14-3.67v-14A25,25,0,0,0,84,43h4.63a25.47,25.47,0,0,0-.12,3.5v3.29a51.13,51.13,0,0,1,10.92,5l-2.28,4.08a45.12,45.12,0,0,0-7.56-4.18,7.29,7.29,0,0,1-.86-.36.66.66,0,0,1-.22-.12v6.24a30.29,30.29,0,0,0,.14,3.67ZM94.86,44.37a17.13,17.13,0,0,1,2.38,3.43L95,48.91a16.27,16.27,0,0,0-2.38-3.5ZM98,42.93a16.87,16.87,0,0,1,2.4,3.34l-2.21,1.08a18.47,18.47,0,0,0-2.35-3.43Z"/><rect class="cls-1" x="2.5" y="2.5" width="128.5" height="76.5"/><path d="M403,26.09c-.46-2.18-1.73-3.26-3.79-3.26-2.93,0-4.63,2.3-4.63,6.26s1.78,6.29,4.75,6.29a3.78,3.78,0,0,0,3.14-1.51,4.1,4.1,0,0,0,.72-2.06l5,.74a9.12,9.12,0,0,1-2,4.39,8.6,8.6,0,0,1-6.72,2.62,9.72,9.72,0,0,1-7.1-2.64,11.06,11.06,0,0,1-2.78-7.82,10.83,10.83,0,0,1,2.9-7.9,9.73,9.73,0,0,1,6.89-2.5c3.1,0,5.52,1.06,7.08,3.14A7.42,7.42,0,0,1,408,25.13Z"/><path d="M415.3,19.13a24.46,24.46,0,0,0-.19,3.62V35.47a28.75,28.75,0,0,0,.19,3.62h-5a24.25,24.25,0,0,0,.19-3.62V22.75a23,23,0,0,0-.19-3.62Z"/><path d="M427.45,29.07c0-1.15-.7-1.68-2.28-1.68s-2.35.5-2.71,1.68l-4.58-.74a5.15,5.15,0,0,1,2-2.9,9.21,9.21,0,0,1,5.4-1.37,10.43,10.43,0,0,1,4.44.84c1.54.84,2.21,2.16,2.21,4.32v6.48a27.78,27.78,0,0,0,.17,3.41h-4.66V38a7,7,0,0,1-4.66,1.44,5.87,5.87,0,0,1-4.15-1.32,4.32,4.32,0,0,1-1.32-3.26,4,4,0,0,1,1.75-3.5,10,10,0,0,1,5-1.56c.94-.1,1.66-.12,3.38-.17Zm0,3.62a14.24,14.24,0,0,0-4.15.48,1.77,1.77,0,0,0-1.39,1.58c0,.86.72,1.37,2,1.37a4.44,4.44,0,0,0,2.71-.91,2.42,2.42,0,0,0,.86-1.85Z"/><path d="M438.85,34.2c.24,1.25,1.06,1.8,2.66,1.8,1.44,0,2.26-.41,2.26-1.15a1,1,0,0,0-.53-.86,6.23,6.23,0,0,0-2-.55,28.25,28.25,0,0,1-3.55-.86,4.6,4.6,0,0,1-2.4-1.7,4.55,4.55,0,0,1-.6-2.28c0-2.88,2.42-4.63,6.43-4.63a7.36,7.36,0,0,1,5.11,1.54,5,5,0,0,1,1.56,2.74l-4.63.5c-.12-1-.72-1.42-2-1.42s-2,.41-2,1,.5.89,2.88,1.42A14.69,14.69,0,0,1,446,30.91a3.76,3.76,0,0,1,2.3,3.67,4.4,4.4,0,0,1-1.22,3.19c-1.15,1.15-3.12,1.75-5.69,1.75-3,0-5.16-.82-6.31-2.4a5.57,5.57,0,0,1-1-2.4Z"/><path d="M454.54,34.2c.24,1.25,1.06,1.8,2.66,1.8,1.44,0,2.26-.41,2.26-1.15a1,1,0,0,0-.53-.86,6.23,6.23,0,0,0-2-.55,28.25,28.25,0,0,1-3.55-.86,4.6,4.6,0,0,1-2.4-1.7,4.55,4.55,0,0,1-.6-2.28c0-2.88,2.42-4.63,6.43-4.63A7.36,7.36,0,0,1,462,25.49a5,5,0,0,1,1.56,2.74l-4.63.5c-.12-1-.72-1.42-2-1.42s-2,.41-2,1,.5.89,2.88,1.42a14.69,14.69,0,0,1,3.94,1.15,3.76,3.76,0,0,1,2.3,3.67,4.4,4.4,0,0,1-1.22,3.19c-1.15,1.15-3.12,1.75-5.69,1.75-3,0-5.16-.82-6.31-2.4a5.57,5.57,0,0,1-1-2.4Z"/><path d="M400.64,46a3.18,3.18,0,0,0-.5,1.34,23.24,23.24,0,0,1-4.82,10.2c-2.23,2.66-4.92,4.58-9.15,6.53a12.63,12.63,0,0,0-3-4,19.35,19.35,0,0,0,8.09-4.7,14.83,14.83,0,0,0,4-7.1h-10a33.12,33.12,0,0,0-4,.14V44a23.17,23.17,0,0,0,4.1.19h11.4a3.75,3.75,0,0,0,1.75-.31Z"/><path d="M423.85,49.1a2.09,2.09,0,0,0-.55.89,12.76,12.76,0,0,1-5.62,6.74,10.08,10.08,0,0,0-2.11-2.16,12.16,12.16,0,0,1-1,4.51c-1,2.23-2.76,3.67-6.17,5.11A11.2,11.2,0,0,0,406,60.75c2.76-.79,4.18-1.68,5-3.19a6.5,6.5,0,0,0,.77-3.29c0-.7.07-1.1.07-1.61a8.19,8.19,0,0,0-.07-1.08h4c-.07.46-.12,1.15-.17,2.21l.38-.19a7.67,7.67,0,0,0,2-1.51,5.74,5.74,0,0,0,1.15-1.61l-9.24,0a28.29,28.29,0,0,0-3.24.12V47a23.67,23.67,0,0,0,3.26.17l10.44,0a3.75,3.75,0,0,0,1.63-.22Z"/><path d="M448.62,45a8.62,8.62,0,0,0-.94.89,40.24,40.24,0,0,1-5.54,4.82V60a34.27,34.27,0,0,0,.14,3.89h-4.66a32.59,32.59,0,0,0,.14-3.86V53.4A40.89,40.89,0,0,1,429.92,57a12.9,12.9,0,0,0-2.3-3.86,34.79,34.79,0,0,0,12.75-6.24,17.61,17.61,0,0,0,4.37-4.39Z"/><path d="M460,43.42c-.1.82-.1.82-.26,5.57-.14,5-.62,7.68-1.78,10.3a16,16,0,0,1-3.34,4.8,13,13,0,0,0-3.43-3.36,10.72,10.72,0,0,0,2.86-3.82c1.13-2.35,1.51-5.33,1.51-11.55a17.64,17.64,0,0,0-.1-2.21Zm6.79-.38a17.16,17.16,0,0,0-.19,2.78l-.12,12.58a9.28,9.28,0,0,0,2.88-2.64,12.14,12.14,0,0,0,1.87-4.1,15.93,15.93,0,0,0,3.19,3.17,14.71,14.71,0,0,1-4.15,6.1,14.35,14.35,0,0,1-5,2.74,5.36,5.36,0,0,0-1.18.5L462,62a5.25,5.25,0,0,0,.26-2l.12-14.21V44.9a14.22,14.22,0,0,0-.1-1.87Z"/><rect class="cls-1" x="362.5" y="2.5" width="128.5" height="76.5"/><path d="M653.31,36.69a14.23,14.23,0,0,0-2.18.1V35.39H648.8a10.48,10.48,0,0,0,.12-1.9v-2c0-.62,0-1.13-.1-1.94.77.07,1.56.1,2.88.1h5.83v-.17a10.09,10.09,0,0,0-.1-1.56h4a8.88,8.88,0,0,0-.12,1.54v.19h6.19c1.32,0,2.09,0,2.88-.1a17.84,17.84,0,0,0-.1,1.87v2.06a15.55,15.55,0,0,0,.1,1.87h-2.3v1.39a15.86,15.86,0,0,0-2.23-.1h-4.63c0,.43,0,.43,0,.84H666a22,22,0,0,0,2.26-.07v2.93a16.15,16.15,0,0,0-2.26-.1h-4.94c0,.46,0,.53-.1.89h6.79a19.66,19.66,0,0,0,2.76-.12v3.26a27.9,27.9,0,0,0-3-.14h-5.06a6.7,6.7,0,0,0,2.18,1.49A21.76,21.76,0,0,0,671,47.13a11.12,11.12,0,0,0-1.63,3.6A21,21,0,0,1,663.82,49a11.81,11.81,0,0,1-4.46-3.46A9.59,9.59,0,0,1,656,48.76a16.05,16.05,0,0,1-6,2,10.19,10.19,0,0,0-1.68-3.48,15.9,15.9,0,0,0,4.34-.82A7.52,7.52,0,0,0,656,44.18h-4.39c-1,0-1.9,0-2.9.14V41.06a18.51,18.51,0,0,0,2.69.12h5.88c.07-.38.1-.55.14-.89h-4.32a15.75,15.75,0,0,0-2.23.1V37.46a22,22,0,0,0,2.23.07h4.49c0-.46,0-.46,0-.84Zm-.86-3.84v1h5.21c0-.53,0-.65,0-1Zm8.86,0c0,.67,0,.7,0,1h5.52v-1Z"/><path d="M691.14,47.11c0,1.63-.41,2.4-1.49,2.83a9.92,9.92,0,0,1-3.58.36c-.46,0-.91,0-1.92,0a12.16,12.16,0,0,0-1-3.72c1.66.14,2.57.22,3.19.22.94,0,1,0,1-.55V38.49h-3.79c-1.13,0-2.3,0-3.22.14V36.18c-.55.74-.84,1.13-1.49,1.9v9.29a23.44,23.44,0,0,0,.14,3.12h-4a23.91,23.91,0,0,0,.17-3.19V41.59A11.45,11.45,0,0,1,673.61,43a12,12,0,0,0-1.51-3.79,17.91,17.91,0,0,0,6-6l2.38,1.7c1,.1,2,.14,3.22.14h8a25.83,25.83,0,0,0,3.19-.14v3.7c-1-.1-2-.14-3.07-.14h-.67Zm-10.49-17a2.23,2.23,0,0,0-.41.43A25.08,25.08,0,0,1,674,35.46a10.31,10.31,0,0,0-1.92-3.34,14.62,14.62,0,0,0,4.58-3.24,5.14,5.14,0,0,0,1-1.25l3.12,2.3Zm.84-1.3a24.09,24.09,0,0,0,3.1.14h6.27a24.46,24.46,0,0,0,3-.14v3.7a29.13,29.13,0,0,0-2.93-.14h-6.34a30.45,30.45,0,0,0-3.1.14Z"/><rect class="cls-1" x="607.5" y="2.5" width="128.5" height="76.5"/><line class="cls-1" x1="131.2" y1="40.21" x2="308.33" y2="40.21"/><polygon points="301.03 65.14 344.2 40.22 301.03 15.28 301.03 65.14"/><line class="cls-1" x1="490.7" y1="40.21" x2="548.33" y2="40.21"/><polygon points="541.03 65.14 584.2 40.22 541.03 15.28 541.03 65.14"/><path class="cls-2" d="M182.37,180a3.18,3.18,0,0,0,.62,1.78,3.51,3.51,0,0,0,2.81,1.13c1.85,0,3-.82,3-2.16a1.81,1.81,0,0,0-1-1.68,19.41,19.41,0,0,0-3.6-1,9.3,9.3,0,0,1-3.86-1.39,5.4,5.4,0,0,1-2.33-4.61c0-3.7,3-6,7.7-6,3,0,5.38.94,6.67,2.74a6.68,6.68,0,0,1,1.2,2.88l-5.09.55c-.29-1.56-1.15-2.21-3-2.21-1.46,0-2.54.79-2.54,1.9a1.65,1.65,0,0,0,1.13,1.54c.48.22.48.22,3.31.79a11.56,11.56,0,0,1,3.89,1.37,5.36,5.36,0,0,1,2.59,4.9,6,6,0,0,1-1.68,4.42c-1.39,1.34-3.5,2-6.31,2a11.39,11.39,0,0,1-5.35-1.18,5.67,5.67,0,0,1-2.59-3.07,9,9,0,0,1-.53-2.23Z"/><path class="cls-2" d="M205.91,177.22a3.38,3.38,0,0,0-.67-1.42,2.54,2.54,0,0,0-2-.84c-1.94,0-3.1,1.54-3.1,4.18s1.22,4.27,3.14,4.27a2.77,2.77,0,0,0,2.28-1.06,2.36,2.36,0,0,0,.43-1.1l4.42.7a7.22,7.22,0,0,1-1,2.38c-1.2,1.78-3.38,2.76-6.17,2.76a7.67,7.67,0,0,1-5.59-2.06,8.12,8.12,0,0,1-2.16-5.83c0-4.8,3-7.87,7.7-7.87,3.7,0,6.26,1.82,7.06,5Z"/><path class="cls-2" d="M221.9,176.5c0-1.15-.7-1.68-2.28-1.68s-2.35.5-2.71,1.68l-4.58-.74a5.15,5.15,0,0,1,2-2.9,9.21,9.21,0,0,1,5.4-1.37,10.43,10.43,0,0,1,4.44.84c1.54.84,2.21,2.16,2.21,4.32v6.48a27.78,27.78,0,0,0,.17,3.41H221.9v-1.1a7,7,0,0,1-4.66,1.44,5.87,5.87,0,0,1-4.15-1.32,4.32,4.32,0,0,1-1.32-3.26,4,4,0,0,1,1.75-3.5,10,10,0,0,1,5-1.56c.94-.1,1.66-.12,3.38-.17Zm0,3.62a14.24,14.24,0,0,0-4.15.48,1.77,1.77,0,0,0-1.39,1.58c0,.86.72,1.37,2,1.37a4.44,4.44,0,0,0,2.71-.91,2.42,2.42,0,0,0,.86-1.85Z"/><path class="cls-2" d="M234.11,166.57a24.46,24.46,0,0,0-.19,3.62v12.72a28.75,28.75,0,0,0,.19,3.62h-5a24.25,24.25,0,0,0,.19-3.62V170.19a23,23,0,0,0-.19-3.62Z"/><path class="cls-2" d="M246.26,176.5c0-1.15-.7-1.68-2.28-1.68s-2.35.5-2.71,1.68l-4.58-.74a5.15,5.15,0,0,1,2-2.9,9.21,9.21,0,0,1,5.4-1.37,10.43,10.43,0,0,1,4.44.84c1.54.84,2.21,2.16,2.21,4.32v6.48a27.78,27.78,0,0,0,.17,3.41h-4.66v-1.1a7,7,0,0,1-4.66,1.44,5.87,5.87,0,0,1-4.15-1.32,4.32,4.32,0,0,1-1.32-3.26,4,4,0,0,1,1.75-3.5,10,10,0,0,1,5-1.56c.94-.1,1.66-.12,3.38-.17Zm0,3.62a14.24,14.24,0,0,0-4.15.48,1.77,1.77,0,0,0-1.39,1.58c0,.86.72,1.37,2,1.37a4.44,4.44,0,0,0,2.71-.91,2.42,2.42,0,0,0,.86-1.85Z"/><path class="cls-2" d="M153.55,193.42a3.1,3.1,0,0,0-.74,1.25,16.23,16.23,0,0,1-6.7,7.94,12.6,12.6,0,0,0-2.69-2.62,13.55,13.55,0,0,1-1.39,5.83,12,12,0,0,1-3.74,4.06,21.89,21.89,0,0,1-3.38,1.85,12.08,12.08,0,0,0-2.74-3.89,10.73,10.73,0,0,0,5.5-3.34c1.15-1.49,1.56-3.19,1.56-6.38a6.52,6.52,0,0,0-.14-1.66h4.51a12.83,12.83,0,0,0-.12,2.06s0,.6,0,.84a3.16,3.16,0,0,1,.55-.29,9.08,9.08,0,0,0,4-4.08H136.58a32,32,0,0,0-3.82.17V191a22.86,22.86,0,0,0,3.89.22h12.58a4,4,0,0,0,2.06-.26Z"/><path class="cls-2" d="M175.72,192c-.26.55-.43,1-.89,2.21a31.13,31.13,0,0,1-6.38,10.61,31.63,31.63,0,0,1-8.86,6.19,14.58,14.58,0,0,0-3-4.1,23.52,23.52,0,0,0,8.18-5,22.48,22.48,0,0,0,5.71-9,14.93,14.93,0,0,0,.67-2.47Z"/><path class="cls-2" d="M193.17,200.74a12.35,12.35,0,0,1-1.73,6.19c-1.32,2.16-3.12,3.53-6.43,4.87A11.09,11.09,0,0,0,182.2,208c4.39-1.3,6.29-3.43,6.48-7.27h-4.92a32.14,32.14,0,0,0-3.62.12v-4a20.26,20.26,0,0,0,3.7.19H197.2a24.51,24.51,0,0,0,3.82-.17v4a31.82,31.82,0,0,0-3.74-.12Zm-10.58-10.08a20.2,20.2,0,0,0,3.72.19h8.4a20.63,20.63,0,0,0,3.84-.19v4.06a29.91,29.91,0,0,0-3.77-.12h-8.54a31.06,31.06,0,0,0-3.65.12Z"/><path class="cls-2" d="M203.92,198.32a34,34,0,0,0,4.92.22h11.47a39.38,39.38,0,0,0,4.92-.22V203a46.47,46.47,0,0,0-4.94-.14H208.86c-2.69,0-3.48,0-4.94.14Z"/><path class="cls-2" d="M230.75,196.16a33,33,0,0,1,6.7,3.38l-2,3.77a27.54,27.54,0,0,0-6.86-3.72Zm-1.51,10.49a24.1,24.1,0,0,0,7.42-1.58,14.51,14.51,0,0,0,6.72-5.16,18.73,18.73,0,0,0,2.64-5.28,15.13,15.13,0,0,0,3.5,3,20.69,20.69,0,0,1-3.74,6.26,19.59,19.59,0,0,1-9.26,5.88,31.69,31.69,0,0,1-4.37,1.06,16.71,16.71,0,0,0-1.7.38Zm3.31-16.37a40.62,40.62,0,0,1,6.89,3.14l-2.14,3.67a29.72,29.72,0,0,0-6.89-3.43Z"/><path class="cls-2" d="M257.7,210.46c-1.34,0-2.21,0-3,.1V207a17.12,17.12,0,0,0,3,.17h8.5v-2.83h-7.49c-1.46,0-2.26,0-3,.1V201c1.06.1,1.9.14,3,.14h7.49v-2.64h-8.26a21.33,21.33,0,0,0-3,.12V195a18.62,18.62,0,0,0,3,.17h9.82c1.15,0,1.51,0,2.16-.07,0,.6,0,1.49,0,2.23v11.19c0,1.1,0,2.18.12,3H266.2v-1.06Z"/><path class="cls-2" d="M279.52,191.21a35,35,0,0,1,6.6,4.7l-2.83,3.74a25.64,25.64,0,0,0-6.53-5.06ZM277,206.12a24.08,24.08,0,0,0,7.22-1.73,14.43,14.43,0,0,0,7-5.93,22.12,22.12,0,0,0,2.35-4.7,15.5,15.5,0,0,0,3.53,3.22c-2.18,4.73-4.46,7.56-7.82,9.72-2.59,1.68-4.87,2.57-9.34,3.6-.94.22-1.08.24-1.73.43Z"/><path class="cls-2" d="M653.81,166.57a21.93,21.93,0,0,0-.19,3.86v10A6.17,6.17,0,0,1,652,185a7.8,7.8,0,0,1-13-3.1l4.68-1.61c.5,1.87,1.22,2.54,2.76,2.54s2.35-.79,2.35-2.45v-10a25.76,25.76,0,0,0-.19-3.89Z"/><path class="cls-2" d="M666.19,176.5c0-1.15-.7-1.68-2.28-1.68s-2.35.5-2.71,1.68l-4.58-.74a5.15,5.15,0,0,1,2-2.9,9.21,9.21,0,0,1,5.4-1.37,10.43,10.43,0,0,1,4.44.84c1.54.84,2.21,2.16,2.21,4.32v6.48a27.78,27.78,0,0,0,.17,3.41h-4.66v-1.1a7,7,0,0,1-4.66,1.44,5.87,5.87,0,0,1-4.15-1.32,4.32,4.32,0,0,1-1.32-3.26,4,4,0,0,1,1.75-3.5,10,10,0,0,1,5-1.56c.94-.1,1.66-.12,3.38-.17Zm0,3.62a14.24,14.24,0,0,0-4.15.48,1.77,1.77,0,0,0-1.39,1.58c0,.86.72,1.37,2,1.37a4.44,4.44,0,0,0,2.71-.91,2.42,2.42,0,0,0,.86-1.85Z"/><path class="cls-2" d="M677.62,171.9a9.93,9.93,0,0,0,.46,2.06l2.23,7.46s0,.14.1.26.07.26.19.67a4.25,4.25,0,0,0,.12-.43.93.93,0,0,0,.07-.24c0-.12.07-.22.1-.29l2.23-7.44a11.1,11.1,0,0,0,.46-2.06h5.33c-.48,1.08-.67,1.54-1,2.33l-4,10.3a10.22,10.22,0,0,0-.65,2H678a10.14,10.14,0,0,0-.65-2l-4-10.3-1-2.33Z"/><path class="cls-2" d="M699.94,176.5c0-1.15-.7-1.68-2.28-1.68s-2.35.5-2.71,1.68l-4.58-.74a5.15,5.15,0,0,1,2-2.9,9.21,9.21,0,0,1,5.4-1.37,10.42,10.42,0,0,1,4.44.84c1.54.84,2.21,2.16,2.21,4.32v6.48a27.59,27.59,0,0,0,.17,3.41h-4.66v-1.1a7,7,0,0,1-4.66,1.44,5.87,5.87,0,0,1-4.15-1.32,4.31,4.31,0,0,1-1.32-3.26,4,4,0,0,1,1.75-3.5,10,10,0,0,1,5-1.56c.94-.1,1.66-.12,3.38-.17Zm0,3.62a14.24,14.24,0,0,0-4.15.48,1.77,1.77,0,0,0-1.39,1.58c0,.86.72,1.37,2,1.37a4.44,4.44,0,0,0,2.71-.91,2.42,2.42,0,0,0,.87-1.85Z"/><path class="cls-2" d="M611.55,193.42a3.1,3.1,0,0,0-.74,1.25,16.23,16.23,0,0,1-6.7,7.94,12.6,12.6,0,0,0-2.69-2.62,13.55,13.55,0,0,1-1.39,5.83,12,12,0,0,1-3.74,4.06,21.89,21.89,0,0,1-3.38,1.85,12.08,12.08,0,0,0-2.74-3.89,10.73,10.73,0,0,0,5.5-3.34c1.15-1.49,1.56-3.19,1.56-6.38a6.52,6.52,0,0,0-.14-1.66h4.51a12.83,12.83,0,0,0-.12,2.06s0,.6,0,.84a3.16,3.16,0,0,1,.55-.29,9.08,9.08,0,0,0,4-4.08H594.58a32,32,0,0,0-3.82.17V191a22.86,22.86,0,0,0,3.89.22h12.58a4,4,0,0,0,2.06-.26Z"/><path class="cls-2" d="M633.72,192c-.26.55-.43,1-.89,2.21a31.13,31.13,0,0,1-6.38,10.61,31.63,31.63,0,0,1-8.86,6.19,14.58,14.58,0,0,0-3-4.1,23.52,23.52,0,0,0,8.18-5,22.48,22.48,0,0,0,5.71-9,14.93,14.93,0,0,0,.67-2.47Z"/><path class="cls-2" d="M651.17,200.74a12.35,12.35,0,0,1-1.73,6.19c-1.32,2.16-3.12,3.53-6.43,4.87A11.09,11.09,0,0,0,640.2,208c4.39-1.3,6.29-3.43,6.48-7.27h-4.92a32.14,32.14,0,0,0-3.62.12v-4a20.26,20.26,0,0,0,3.7.19H655.2a24.51,24.51,0,0,0,3.82-.17v4a31.82,31.82,0,0,0-3.74-.12Zm-10.58-10.08a20.2,20.2,0,0,0,3.72.19h8.4a20.63,20.63,0,0,0,3.84-.19v4.06a29.91,29.91,0,0,0-3.77-.12h-8.54a31.06,31.06,0,0,0-3.65.12Z"/><path class="cls-2" d="M661.92,198.32a34,34,0,0,0,4.92.22h11.47a39.36,39.36,0,0,0,4.92-.22V203a46.47,46.47,0,0,0-4.94-.14H666.86c-2.69,0-3.48,0-4.94.14Z"/><path class="cls-2" d="M688.75,196.16a32.94,32.94,0,0,1,6.7,3.38l-2,3.77a27.54,27.54,0,0,0-6.86-3.72Zm-1.51,10.49a24.1,24.1,0,0,0,7.42-1.58,14.51,14.51,0,0,0,6.72-5.16,18.72,18.72,0,0,0,2.64-5.28,15.14,15.14,0,0,0,3.5,3,20.68,20.68,0,0,1-3.74,6.26,19.59,19.59,0,0,1-9.26,5.88,31.67,31.67,0,0,1-4.37,1.06,16.66,16.66,0,0,0-1.7.38Zm3.31-16.37a40.61,40.61,0,0,1,6.89,3.14l-2.14,3.67a29.71,29.71,0,0,0-6.89-3.43Z"/><path class="cls-2" d="M715.7,210.46c-1.34,0-2.21,0-3,.1V207a17.13,17.13,0,0,0,3,.17h8.5v-2.83h-7.49c-1.46,0-2.26,0-3,.1V201c1.06.1,1.9.14,3,.14h7.49v-2.64h-8.26a21.34,21.34,0,0,0-3,.12V195a18.63,18.63,0,0,0,3,.17h9.82c1.15,0,1.51,0,2.16-.07,0,.6,0,1.49,0,2.23v11.19c0,1.1,0,2.18.12,3H724.2v-1.06Z"/><path class="cls-2" d="M737.52,191.21a35,35,0,0,1,6.6,4.7l-2.83,3.74a25.63,25.63,0,0,0-6.53-5.06ZM735,206.12a24.09,24.09,0,0,0,7.22-1.73,14.43,14.43,0,0,0,7-5.93,22.12,22.12,0,0,0,2.35-4.7,15.5,15.5,0,0,0,3.53,3.22c-2.18,4.73-4.46,7.56-7.82,9.72-2.59,1.68-4.87,2.57-9.34,3.6-.94.22-1.08.24-1.73.43Z"/><line class="cls-3" x1="189.7" y1="41.21" x2="189.7" y2="125.69"/><polygon points="174.75 121.31 189.7 147.21 204.66 121.31 174.75 121.31"/><line class="cls-3" x1="238.2" y1="62.74" x2="238.2" y2="147.21"/><polygon points="223.25 67.12 238.2 41.21 253.16 67.12 223.25 67.12"/><rect class="cls-3" x="114.2" y="147.71" width="201" height="87"/><rect class="cls-3" x="571.2" y="142.71" width="201" height="87"/><line class="cls-3" x1="672.2" y1="78.71" x2="671.87" y2="120.69"/><polygon points="656.95 116.19 671.7 142.21 686.87 116.43 656.95 116.19"/><path d="M114.22,99.86a22.8,22.8,0,0,0-.19,3.55v12.87a25.51,25.51,0,0,0,.19,3.55h-5.16a23.19,23.19,0,0,0,.19-3.55v-4.66h-8.09v4.66a24.64,24.64,0,0,0,.19,3.55H96.2a22.81,22.81,0,0,0,.19-3.55V103.41a23.4,23.4,0,0,0-.19-3.55h5.16a25.73,25.73,0,0,0-.19,3.55v4h8.09v-4a22.6,22.6,0,0,0-.19-3.55Z"/><path d="M116.38,112.48c0-4.8,3.07-7.85,7.92-7.85s7.92,3,7.92,7.8-3.17,7.94-7.94,7.94S116.38,117.31,116.38,112.48Zm4.58,0c0,2.66,1.25,4.27,3.34,4.27s3.29-1.56,3.29-4.22-1.22-4.27-3.26-4.27S121,109.82,121,112.46Z"/><path d="M133.54,112.48c0-4.8,3.07-7.85,7.92-7.85s7.92,3,7.92,7.8-3.17,7.94-7.94,7.94S133.54,117.31,133.54,112.48Zm4.58,0c0,2.66,1.25,4.27,3.34,4.27s3.29-1.56,3.29-4.22-1.22-4.27-3.26-4.27S138.13,109.82,138.13,112.46Z"/><path d="M156.2,99.86a24.46,24.46,0,0,0-.19,3.62v6.74l2.64-2.62a14.8,14.8,0,0,0,2.09-2.42h6.38c-.94.82-1.22,1.08-2.52,2.35l-3.48,3.36,4,5.86a36.1,36.1,0,0,0,2.23,3.07h-6.12a18,18,0,0,0-1.58-3.22l-1.82-3-1.8,1.73v1a17.63,17.63,0,0,0,.19,3.5h-4.9a25.51,25.51,0,0,0,.19-3.62V103.48a26.94,26.94,0,0,0-.19-3.62Z"/><path d="M261.27,119.39a33.9,33.9,0,0,0-4.1.18l0-4.37a24.79,24.79,0,0,0,4.18.16l9.6-.07-.07-9.38-9.31.07a41.24,41.24,0,0,0-4.13.15l0-4.37a25.14,25.14,0,0,0,4.2.18l11-.08c1.3,0,2,0,2.66-.09,0,.84-.06,1.25-.05,2.45l.1,12.53a36.35,36.35,0,0,0,.17,4l-4.51,0v-1.42Z"/><path d="M279.64,108.33a34,34,0,0,0,4.92.18l11.47-.09a39.33,39.33,0,0,0,4.92-.25l0,4.63a46.6,46.6,0,0,0-4.94-.11l-11.42.09c-2.69,0-3.48.05-4.94.18Z"/><path d="M307.65,121c.09-1,.11-1.71.12-3.67l-.11-14a25.18,25.18,0,0,0-.19-3.48l4.63,0a25.51,25.51,0,0,0-.09,3.51l0,3.29a51.14,51.14,0,0,1,11,4.91l-2.25,4.1a45.12,45.12,0,0,0-7.59-4.12,7.09,7.09,0,0,1-.87-.35.66.66,0,0,1-.22-.12l0,6.24a30.24,30.24,0,0,0,.17,3.67Zm10.7-19.86a17.14,17.14,0,0,1,2.4,3.41l-2.27,1.12a16.27,16.27,0,0,0-2.4-3.49Zm3.18-1.46A16.88,16.88,0,0,1,324,103l-2.2,1.1a18.45,18.45,0,0,0-2.38-3.41Z"/><path d="M332.41,106.77a21.79,21.79,0,0,1-3.25,5,12.8,12.8,0,0,0-2.42-3.1,15.35,15.35,0,0,0,4.13-8.94l3.75.86c-.28.82-.28.82-.47,1.47-.12.48-.23.84-.4,1.37l2.88,0v-1.1a27.24,27.24,0,0,0-.17-3.21l4.1,0a22.18,22.18,0,0,0-.12,3.22v1.1l4.18,0c1.42,0,2.59-.07,3.74-.17l0,3.62c-1.2-.09-2.33-.13-3.63-.12l-4.3,0,0,3.6,3.53,0a32.88,32.88,0,0,0,3.36-.17l0,3.62c-1.08-.09-2.06-.13-3.34-.12l-3.55,0,0,3.91,4.94,0a35.35,35.35,0,0,0,3.81-.2l0,3.72c-1.37-.11-2.38-.15-3.7-.14l-14,.11c-1.37,0-2.57.07-4,.2l0-3.72c1.23.11,2.43.15,3.82.14l5.26,0,0-3.91-3,0c-1.27,0-2.26.07-3.29.17l0-3.6a29.29,29.29,0,0,0,3.22.1l3,0,0-3.6Z"/><path d="M372.4,107.42a11.25,11.25,0,0,0-.45,1.16,29.74,29.74,0,0,1-3.17,6,7.23,7.23,0,0,0,1.67,2.17,11.68,11.68,0,0,0,.65-3.1,12.89,12.89,0,0,0,2.78,2.14c-.6,3.6-1.52,5.17-3,5.18s-2.87-1.15-4.54-3.52a22.13,22.13,0,0,1-4.77,3.61,14.21,14.21,0,0,0-1.8-2.87,11.9,11.9,0,0,1-2.49.28c-.24,0-.48,0-.86,0a15.51,15.51,0,0,0-.57-2.64,14.49,14.49,0,0,1-2.19,5.66,16.32,16.32,0,0,0-2.9-3,11.15,11.15,0,0,0,1.55-3.95,50.34,50.34,0,0,0,.62-9.75,30.91,30.91,0,0,0-.17-3.17c1,.06,2,.1,3.27.1l6.79-.05a24,24,0,0,0-.17-2.86l3.91,0a12.18,12.18,0,0,0-.11,1.73v1.13l2.42,0a14.5,14.5,0,0,0-1.93-1.26l2.29-2.15a17.5,17.5,0,0,1,3.07,2.21l-1.41,1.19a14.45,14.45,0,0,0,2.38-.14l0,3.62a30.32,30.32,0,0,0-3.15-.12l-3.58,0a37.16,37.16,0,0,0,.72,5.59,14.82,14.82,0,0,0,1.57-4.5Zm-16,3.48c-.11,1.63-.24,2.83-.42,4.11a8.31,8.31,0,0,0,1.42.13c.58,0,.77-.1.93-.49a12.8,12.8,0,0,0,.33-3.77Zm4.29-3.3a13.24,13.24,0,0,0,1.58-.08c0,.67,0,.67-.16,4.39a15.2,15.2,0,0,1-.71,5,17.63,17.63,0,0,0,3.27-2.62,30.73,30.73,0,0,1-1.7-9.2l-6.46,0c0,1.32,0,1.7,0,2.5Z"/><path d="M387.33,123.55a20.91,20.91,0,0,1-2.7-4.3,18.72,18.72,0,0,1-.85-13.84,20,20,0,0,1,3.36-6.08l3.31,2.28a15.07,15.07,0,0,0-3.38,9.94,14.67,14.67,0,0,0,.78,4.84,15.94,15.94,0,0,0,2.73,4.83Z"/><path d="M401.32,119.61a18.76,18.76,0,0,0-1.06-3.54L398,109.69c0-.12-.76-2.35-.84-2.54-.27-.86-.27-.86-.39-1.2.16,1.51.27,3.48.28,4.75l0,5.21a25.75,25.75,0,0,0,.22,3.72l-4.73,0a26.54,26.54,0,0,0,.16-3.72l-.1-12.5a33,33,0,0,0-.22-3.74l6.34,0a17.75,17.75,0,0,0,.94,3.38l3.68,10.32,3.5-10.37a16.56,16.56,0,0,0,.86-3.39l6.36,0a27.84,27.84,0,0,0-.16,3.75l.1,12.5a23.83,23.83,0,0,0,.22,3.72l-4.73,0a26.16,26.16,0,0,0,.16-3.72l0-5.23c0-.58.05-2.38.1-3.12.06-1.27.06-1.27.08-1.63-.51,1.88-.75,2.74-1.05,3.61L406.5,116a21.78,21.78,0,0,0-1,3.54Z"/><path d="M426.58,109.38c0-1.15-.71-1.67-2.29-1.66s-2.35.52-2.7,1.7l-4.59-.71a5.15,5.15,0,0,1,2-2.92,9.21,9.21,0,0,1,5.39-1.41,10.42,10.42,0,0,1,4.45.81c1.54.83,2.22,2.14,2.24,4.3l.05,6.48a27.77,27.77,0,0,0,.19,3.41l-4.66,0v-1.1a7,7,0,0,1-4.65,1.48,5.87,5.87,0,0,1-4.16-1.29,4.32,4.32,0,0,1-1.35-3.25,4,4,0,0,1,1.72-3.52,10,10,0,0,1,5-1.6c.94-.1,1.66-.13,3.38-.19Zm0,3.62a14.24,14.24,0,0,0-4.15.51,1.78,1.78,0,0,0-1.38,1.59c0,.86.73,1.36,2,1.35a4.44,4.44,0,0,0,2.7-.93,2.42,2.42,0,0,0,.85-1.85Z"/><path d="M443.6,110a3.38,3.38,0,0,0-.68-1.41,2.54,2.54,0,0,0-2-.82c-1.94,0-3.08,1.56-3.06,4.2s1.26,4.26,3.18,4.25a2.78,2.78,0,0,0,2.27-1.07,2.37,2.37,0,0,0,.42-1.11l4.42.66a7.22,7.22,0,0,1-1,2.38c-1.19,1.79-3.36,2.79-6.15,2.81a7.67,7.67,0,0,1-5.61-2,8.12,8.12,0,0,1-2.21-5.82c0-4.8,3-7.9,7.64-7.93,3.7,0,6.28,1.78,7.1,5Z"/><path d="M460.75,108.83a7.74,7.74,0,0,0-2.45-.44,3.39,3.39,0,0,0-3.55,3.46l0,3.74a26.16,26.16,0,0,0,.22,3.6l-5,0a26.83,26.83,0,0,0,.16-3.63l-.06-7.39a23.6,23.6,0,0,0-.22-3.62l4.78,0v1.9a5.44,5.44,0,0,1,4.78-2.22,9.68,9.68,0,0,1,2.38.27Z"/><path d="M462.74,111.79c0-4.8,3-7.87,7.86-7.91s7.94,3,8,7.74-3.11,8-7.88,8S462.78,116.61,462.74,111.79Zm4.58-.06c0,2.66,1.28,4.26,3.37,4.25s3.28-1.59,3.26-4.25-1.26-4.26-3.3-4.25S467.31,109.09,467.33,111.73Z"/><path d="M483,98.6a20.64,20.64,0,0,1,3.43,6,18.73,18.73,0,0,1-.64,13.85,21.76,21.76,0,0,1-2.61,4.34l-3.31-2.28a16.1,16.1,0,0,0,2.67-4.87,15.24,15.24,0,0,0,.68-4.85,15.06,15.06,0,0,0-3.53-9.89Z"/><path d="M714.45,119.83a23.32,23.32,0,0,0-1.18-3.74c-.77-2.09-1.06-2.64-1.66-3.17a2.62,2.62,0,0,0-1.87-.65H707.3v3.94a25.36,25.36,0,0,0,.19,3.62h-5.16a23.75,23.75,0,0,0,.19-3.6V103.32a25.66,25.66,0,0,0-.19-3.53c1.06,0,1.94.07,3.58.07h6.24c3.89,0,6.14,2,6.14,5.47a5.23,5.23,0,0,1-1.42,3.94,5.31,5.31,0,0,1-2.28,1.2c1.22.38,1.78.94,2.54,2.64.36.77.7,1.58,1.78,4.18.26.67.55,1.27,1.15,2.54ZM711,108.16a2.09,2.09,0,0,0,2.28-2.23c0-1.34-.77-2-2.26-2H707.3v4.27Z"/><path d="M725.63,113.85a3,3,0,0,0,3.26,3,3.51,3.51,0,0,0,2.42-.89,2.35,2.35,0,0,0,.72-1.22l4.18,1.18a7,7,0,0,1-1.58,2.47,7.8,7.8,0,0,1-5.67,2,7.51,7.51,0,0,1-5.57-2,8.17,8.17,0,0,1-2.18-5.86c0-4.75,3-7.9,7.63-7.9a6.9,6.9,0,0,1,7.2,5.62,17.49,17.49,0,0,1,.36,3.14,4.47,4.47,0,0,0,0,.48Zm6.24-3.31a2.8,2.8,0,0,0-3-2.35,2.9,2.9,0,0,0-3.14,2.35Z"/><path d="M740,108.88a17.27,17.27,0,0,0-2.69.17v-4a21.74,21.74,0,0,0,2.69.17h.65v-1.13c0-3.17,1.8-4.63,5.71-4.63a12.63,12.63,0,0,1,3.65.5l-.74,3.53a4.66,4.66,0,0,0-2.37-.6c-1.18,0-1.63.48-1.63,1.73v.6h.7c1,0,2.3-.07,3.19-.17v4a23.85,23.85,0,0,0-3.14-.17h-.74v7.32a25.82,25.82,0,0,0,.19,3.62h-5a26.54,26.54,0,0,0,.19-3.62v-7.32Zm15.77-9a24.51,24.51,0,0,0-.19,3.62v12.72a28.83,28.83,0,0,0,.19,3.62h-5a24.18,24.18,0,0,0,.19-3.62V103.48a23,23,0,0,0-.19-3.62Z"/><path d="M762,113.85a3,3,0,0,0,3.26,3,3.5,3.5,0,0,0,2.42-.89,2.35,2.35,0,0,0,.72-1.22l4.18,1.18a7,7,0,0,1-1.58,2.47,7.8,7.8,0,0,1-5.66,2,7.5,7.5,0,0,1-5.57-2,8.17,8.17,0,0,1-2.18-5.86c0-4.75,3-7.9,7.63-7.9a6.9,6.9,0,0,1,7.2,5.62,17.4,17.4,0,0,1,.36,3.14,4.29,4.29,0,0,0,0,.48Zm6.24-3.31a2.8,2.8,0,0,0-3-2.35,2.9,2.9,0,0,0-3.14,2.35Z"/><path d="M784.57,110.52a3.36,3.36,0,0,0-.67-1.42,2.54,2.54,0,0,0-2-.84c-1.94,0-3.1,1.54-3.1,4.18s1.22,4.27,3.14,4.27a2.77,2.77,0,0,0,2.28-1.06,2.36,2.36,0,0,0,.43-1.1l4.42.7a7.2,7.2,0,0,1-1,2.38c-1.2,1.78-3.38,2.76-6.17,2.76a7.67,7.67,0,0,1-5.59-2.06,8.12,8.12,0,0,1-2.16-5.83c0-4.8,3-7.87,7.7-7.87,3.7,0,6.27,1.82,7.06,5Z"/><path d="M792.83,104.68a24.53,24.53,0,0,0-.19-3.29h4.9a27.86,27.86,0,0,0-.19,3.29v.5h.87a16.44,16.44,0,0,0,2.35-.12v4a15.48,15.48,0,0,0-2.21-.14h-1v6.14c0,.67.12,1,.43,1.22a2.09,2.09,0,0,0,1.1.26,3.31,3.31,0,0,0,1.68-.43l.36,3.65a10.31,10.31,0,0,1-3.31.48,5.79,5.79,0,0,1-3.53-.84c-.91-.7-1.25-1.51-1.25-3.14v-7.34h-.91a14.48,14.48,0,0,0-2.09.14v-4a14.5,14.5,0,0,0,2.14.14h.86Z"/><path d="M807.45,105.19a23.92,23.92,0,0,0-.19,3.62v7.39a33,33,0,0,0,.19,3.62h-5a26.94,26.94,0,0,0,.19-3.62v-7.39a25.81,25.81,0,0,0-.19-3.62Zm-.07-5.33v3.6H802.5v-3.6Z"/><path d="M809.37,112.48c0-4.8,3.07-7.85,7.92-7.85s7.92,3,7.92,7.8-3.17,7.94-7.94,7.94S809.37,117.31,809.37,112.48Zm4.58,0c0,2.66,1.25,4.27,3.34,4.27s3.29-1.56,3.29-4.22-1.22-4.27-3.26-4.27S813.95,109.82,813.95,112.46Z"/><path d="M827.15,119.83a26.74,26.74,0,0,0,.19-3.62v-7.39a23.75,23.75,0,0,0-.19-3.62h4.78v1c0,.14,0,.5,0,.67a6.62,6.62,0,0,1,4.94-2,5.29,5.29,0,0,1,3.87,1.34,5.18,5.18,0,0,1,1.37,4v6a30.7,30.7,0,0,0,.19,3.6h-5a27.22,27.22,0,0,0,.19-3.62v-4.92a2.74,2.74,0,0,0-.38-1.78,1.86,1.86,0,0,0-1.58-.67c-1.34,0-2.54.84-3.58,2.52v4.85a29.35,29.35,0,0,0,.19,3.62Z"/></g></g></svg>