<svg xmlns="http://www.w3.org/2000/svg" viewBox="0 0 737.17 323.03"><defs><style>.cls-1,.cls-2{fill:none;stroke:#000;stroke-miterlimit:10;}.cls-1{stroke-width:5px;}.cls-2{stroke-width:3px;}</style></defs><title>アセット 1</title><g id="レイヤー_2" data-name="レイヤー 2"><g id="レイヤー_1-2" data-name="レイヤー 1"><path d="M36.81,34.87c-.46-2.18-1.73-3.26-3.79-3.26-2.93,0-4.63,2.3-4.63,6.26s1.78,6.29,4.75,6.29a3.78,3.78,0,0,0,3.14-1.51A4.1,4.1,0,0,0,37,40.58l5,.74a9.12,9.12,0,0,1-2,4.39,8.6,8.6,0,0,1-6.72,2.62,9.72,9.72,0,0,1-7.1-2.64,11.06,11.06,0,0,1-2.78-7.82,10.83,10.83,0,0,1,2.9-7.9,9.73,9.73,0,0,1,6.89-2.5c3.1,0,5.52,1.06,7.08,3.14a7.42,7.42,0,0,1,1.49,3.29Z"/><path d="M49.07,27.91a24.46,24.46,0,0,0-.19,3.62V44.26a28.75,28.75,0,0,0,.19,3.62h-5a24.25,24.25,0,0,0,.19-3.62V31.54a23,23,0,0,0-.19-3.62Z"/><path d="M56.61,33.24a23.85,23.85,0,0,0-.19,3.62v7.39a32.72,32.72,0,0,0,.19,3.62h-5a26.84,26.84,0,0,0,.19-3.62V36.86a25.72,25.72,0,0,0-.19-3.62Zm-.07-5.33v3.6H51.66v-3.6Z"/><path d="M62.94,41.9a3,3,0,0,0,3.26,3A3.51,3.51,0,0,0,68.63,44a2.36,2.36,0,0,0,.72-1.22l4.18,1.18a7,7,0,0,1-1.58,2.47,7.8,7.8,0,0,1-5.66,2,7.51,7.51,0,0,1-5.57-2,8.17,8.17,0,0,1-2.18-5.86c0-4.75,3-7.9,7.63-7.9a6.9,6.9,0,0,1,7.2,5.62,17.5,17.5,0,0,1,.36,3.14,4.38,4.38,0,0,0,0,.48Zm6.24-3.31a2.8,2.8,0,0,0-3-2.35A2.9,2.9,0,0,0,63,38.59Z"/><path d="M75.66,47.88a26.84,26.84,0,0,0,.19-3.62V36.86a23.83,23.83,0,0,0-.19-3.62h4.78v1c0,.14,0,.5,0,.67a6.62,6.62,0,0,1,4.94-2,5.29,5.29,0,0,1,3.86,1.34,5.17,5.17,0,0,1,1.37,4v6a30.7,30.7,0,0,0,.19,3.6h-5A27.31,27.31,0,0,0,86,44.26V39.34a2.74,2.74,0,0,0-.38-1.78A1.86,1.86,0,0,0,84,36.89c-1.34,0-2.54.84-3.58,2.52v4.85a29.25,29.25,0,0,0,.19,3.62Z"/><path d="M95.17,32.74A24.45,24.45,0,0,0,95,29.45h4.9a27.87,27.87,0,0,0-.19,3.29v.5h.86a16.45,16.45,0,0,0,2.35-.12v4a15.48,15.48,0,0,0-2.21-.14h-1V43.1c0,.67.12,1,.43,1.22a2.09,2.09,0,0,0,1.1.26,3.31,3.31,0,0,0,1.68-.43l.36,3.65a10.31,10.31,0,0,1-3.31.48,5.79,5.79,0,0,1-3.53-.84c-.91-.7-1.25-1.51-1.25-3.14V37h-.91a14.49,14.49,0,0,0-2.09.14v-4a14.52,14.52,0,0,0,2.14.14h.86Z"/><rect class="cls-1" x="2.5" y="6.53" width="121" height="64"/><path d="M372.78,41.38a3.17,3.17,0,0,0,.62,1.78,3.51,3.51,0,0,0,2.81,1.13c1.85,0,3-.82,3-2.16a1.81,1.81,0,0,0-1-1.68,19.4,19.4,0,0,0-3.6-1,9.3,9.3,0,0,1-3.86-1.39,5.4,5.4,0,0,1-2.33-4.61c0-3.7,3-6,7.7-6,3,0,5.38.94,6.67,2.74a6.69,6.69,0,0,1,1.2,2.88l-5.09.55c-.29-1.56-1.15-2.21-3-2.21-1.46,0-2.54.79-2.54,1.9a1.65,1.65,0,0,0,1.13,1.54c.48.22.48.22,3.31.79A11.56,11.56,0,0,1,381.66,37a5.36,5.36,0,0,1,2.59,4.9,6,6,0,0,1-1.68,4.42c-1.39,1.34-3.5,2-6.31,2a11.39,11.39,0,0,1-5.35-1.18,5.68,5.68,0,0,1-2.59-3.07,9,9,0,0,1-.53-2.23Z"/><path d="M390.3,41.9a3,3,0,0,0,3.26,3A3.5,3.5,0,0,0,396,44a2.35,2.35,0,0,0,.72-1.22l4.18,1.18a7,7,0,0,1-1.58,2.47,7.8,7.8,0,0,1-5.66,2,7.51,7.51,0,0,1-5.57-2,8.17,8.17,0,0,1-2.18-5.86c0-4.75,3-7.9,7.63-7.9a6.9,6.9,0,0,1,7.2,5.62,17.49,17.49,0,0,1,.36,3.14,4.47,4.47,0,0,0,0,.48Zm6.24-3.31a2.8,2.8,0,0,0-3-2.35,2.9,2.9,0,0,0-3.14,2.35Z"/><path d="M413.82,37.56a7.74,7.74,0,0,0-2.45-.46,3.39,3.39,0,0,0-3.58,3.43v3.74a26.17,26.17,0,0,0,.19,3.6h-5a26.92,26.92,0,0,0,.19-3.62V36.86a23.7,23.7,0,0,0-.19-3.62h4.78v1.9A5.44,5.44,0,0,1,412.6,33a9.68,9.68,0,0,1,2.38.29Z"/><path d="M420.64,33.24a9.93,9.93,0,0,0,.46,2.06l2.23,7.46s0,.14.1.26.07.26.19.67c.07-.22.1-.34.12-.43a1,1,0,0,0,.07-.24c0-.12.07-.22.1-.29l2.23-7.44a11.08,11.08,0,0,0,.46-2.06h5.33c-.48,1.08-.67,1.54-1,2.33l-4,10.3a10.22,10.22,0,0,0-.65,2H421a10.22,10.22,0,0,0-.65-2l-4-10.3-1-2.33Z"/><path d="M437.13,41.9a3,3,0,0,0,3.26,3,3.51,3.51,0,0,0,2.42-.89,2.36,2.36,0,0,0,.72-1.22l4.18,1.18a7,7,0,0,1-1.58,2.47,7.8,7.8,0,0,1-5.67,2,7.5,7.5,0,0,1-5.57-2,8.17,8.17,0,0,1-2.18-5.86c0-4.75,3-7.9,7.63-7.9a6.9,6.9,0,0,1,7.2,5.62,17.51,17.51,0,0,1,.36,3.14,4.29,4.29,0,0,0,0,.48Zm6.24-3.31a2.8,2.8,0,0,0-3-2.35,2.9,2.9,0,0,0-3.14,2.35Z"/><path d="M460.65,37.56a7.74,7.74,0,0,0-2.45-.46,3.39,3.39,0,0,0-3.58,3.43v3.74a26.32,26.32,0,0,0,.19,3.6h-5a26.76,26.76,0,0,0,.19-3.62V36.86a23.57,23.57,0,0,0-.19-3.62h4.78v1.9a5.44,5.44,0,0,1,4.8-2.18,9.68,9.68,0,0,1,2.38.29Z"/><rect class="cls-1" x="353.93" y="6.53" width="121" height="64"/><line class="cls-1" x1="123.43" y1="38.03" x2="322" y2="38.49"/><polygon points="318.32 50.95 339.94 38.53 318.38 26.02 318.32 50.95"/><path d="M179.19.13a14,14,0,0,0-.14,2.3v9.71a14.24,14.24,0,0,0,.14,2.32H176.5a13.74,13.74,0,0,0,.14-2.32V8.07h-7.24v4.07a14.09,14.09,0,0,0,.14,2.32h-2.68a13.6,13.6,0,0,0,.14-2.32V2.45a13.73,13.73,0,0,0-.14-2.32h2.68a14.71,14.71,0,0,0-.14,2.3V5.91h7.24V2.45A13.6,13.6,0,0,0,176.5.13Z"/><path d="M188.06,12.12a15,15,0,0,0,.14,2.34h-2.72a15.11,15.11,0,0,0,.14-2.34V2.29H183.2a17.91,17.91,0,0,0-2.47.13V0a18.14,18.14,0,0,0,2.45.13h7.13A19.13,19.13,0,0,0,193,0V2.41a19,19,0,0,0-2.65-.13h-2.25Z"/><path d="M200.82,12.12a15,15,0,0,0,.14,2.34h-2.72a15.11,15.11,0,0,0,.14-2.34V2.29H196a17.91,17.91,0,0,0-2.47.13V0a18.14,18.14,0,0,0,2.45.13h7.13A19.13,19.13,0,0,0,205.72,0V2.41a19,19,0,0,0-2.65-.13h-2.25Z"/><path d="M207.26,14.46a14.58,14.58,0,0,0,.14-2.32V2.39a16.28,16.28,0,0,0-.14-2.32c.77,0,1.33.05,2.29.05h3.76a5.11,5.11,0,0,1,3.83,1.28,4.21,4.21,0,0,1,1.12,3.1,4.62,4.62,0,0,1-1.21,3.31,5.1,5.1,0,0,1-3.83,1.3h-3.44v3a14.47,14.47,0,0,0,.14,2.34Zm6-7.42a2.27,2.27,0,0,0,2.56-2.47,2.43,2.43,0,0,0-.59-1.73,2.46,2.46,0,0,0-2-.65h-3.44V7Z"/><path d="M235.2,14.46a14.57,14.57,0,0,0-.94-2.88c-1-2.48-1.6-3.15-3-3.15h-2.68V12.1a14,14,0,0,0,.14,2.36h-2.68a14.11,14.11,0,0,0,.14-2.34V2.41a16,16,0,0,0-.14-2.34c.76,0,1.31.05,2.3.05h4.32c2.74,0,4.3,1.37,4.3,3.75a3.7,3.7,0,0,1-.92,2.68,3.81,3.81,0,0,1-2,1c1.13.36,1.48.86,3.26,5.08.14.32.59,1.3.85,1.78Zm-3-8.08a2.43,2.43,0,0,0,1.71-.65,2.14,2.14,0,0,0,.58-1.58c0-1.3-.74-2-2.21-2h-3.69v4.2Z"/><path d="M241.66,9.88a3.35,3.35,0,0,0,.67,2,3,3,0,0,0,4.41.11,2.61,2.61,0,0,0,.52-.94l2.12.68a5.06,5.06,0,0,1-1.1,1.66,5.11,5.11,0,0,1-3.71,1.39c-3.19,0-5.2-2.12-5.2-5.49s2-5.51,5.08-5.51a4.57,4.57,0,0,1,4.48,2.84,7.39,7.39,0,0,1,.52,2.74s0,.09,0,.5Zm5.49-1.78a2.82,2.82,0,0,0-.79-1.73,2.57,2.57,0,0,0-1.94-.72,2.7,2.7,0,0,0-2.7,2.45Z"/><path d="M261.73,4.12a18.55,18.55,0,0,0-.13,2.41v9.06a20.09,20.09,0,0,0,.13,2.38h-2.54a17.9,17.9,0,0,0,.13-2.39V14.19q0-.43.05-1.35a4.32,4.32,0,0,1-3.69,1.75,4.76,4.76,0,0,1-3.44-1.3,5.54,5.54,0,0,1-1.4-4,5.26,5.26,0,0,1,2.25-4.72,5.33,5.33,0,0,1,2.72-.67,4.1,4.1,0,0,1,3.56,1.73c0-.25,0-.45,0-.65V4.12ZM256,12.69a3.17,3.17,0,0,0,2.81-1.62,4.4,4.4,0,0,0,.43-1.93,3.11,3.11,0,0,0-3.08-3.35c-1.82,0-3,1.37-3,3.49S254.3,12.69,256,12.69Z"/><path d="M273.85,4.12a13,13,0,0,0-.14,2.34v5.65a14.82,14.82,0,0,0,.14,2.34H271.4v-1c0-.27,0-.32,0-.77a4.57,4.57,0,0,1-5.85,1.4A3.36,3.36,0,0,1,264.11,11V6.46A16.51,16.51,0,0,0,264,4.12h2.61a16.14,16.14,0,0,0-.13,2.34v4a2.2,2.2,0,0,0,.83,2.05,2.24,2.24,0,0,0,1,.25c1.3,0,2.32-.88,3.13-2.66V6.46a19,19,0,0,0-.14-2.34Z"/><path d="M277.95,9.88a3.35,3.35,0,0,0,.67,2A3,3,0,0,0,283,12a2.6,2.6,0,0,0,.52-.94l2.13.68a5.06,5.06,0,0,1-1.1,1.66,5.11,5.11,0,0,1-3.71,1.39c-3.19,0-5.2-2.12-5.2-5.49s2-5.51,5.08-5.51a4.57,4.57,0,0,1,4.48,2.84,7.4,7.4,0,0,1,.52,2.74s0,.09,0,.5Zm5.49-1.78a2.82,2.82,0,0,0-.79-1.73,2.57,2.57,0,0,0-1.94-.72A2.7,2.7,0,0,0,278,8.1Z"/><path d="M289.58,11.22c.31,1.22,1,1.71,2.38,1.71s2.16-.52,2.16-1.37a1.1,1.1,0,0,0-.47-.9c-.34-.23-.45-.25-1.89-.58a10.89,10.89,0,0,1-2.59-.77,2.58,2.58,0,0,1-1.58-2.39,2.68,2.68,0,0,1,.56-1.67,4.34,4.34,0,0,1,3.6-1.4,4.91,4.91,0,0,1,3.39,1,3.51,3.51,0,0,1,1,1.78L293.72,7c-.2-1-.81-1.42-2-1.42s-1.87.5-1.87,1.26a1,1,0,0,0,.56.85,7.6,7.6,0,0,0,1.8.54,7.74,7.74,0,0,1,3.17,1.1,2.56,2.56,0,0,1,1,2.23,2.9,2.9,0,0,1-.88,2,5.32,5.32,0,0,1-3.73,1.17,4.76,4.76,0,0,1-4-1.6,4.06,4.06,0,0,1-.7-1.6Z"/><path d="M302,1.35a19.87,19.87,0,0,0-.13,2.21v.56h.76A10.36,10.36,0,0,0,304.46,4V6.14A10,10,0,0,0,302.7,6h-.81v5.58c0,.88.32,1.21,1.19,1.21a2.38,2.38,0,0,0,1.31-.4l.32,1.91a5.63,5.63,0,0,1-2.25.38c-2.07,0-2.9-.74-2.9-2.63V6h-.68a9.11,9.11,0,0,0-1.6.11V4a8.28,8.28,0,0,0,1.62.11h.67V3.56a20.79,20.79,0,0,0-.13-2.21Z"/><path d="M211,119.34a2.14,2.14,0,1,1-2.14-2.14A2.14,2.14,0,0,1,211,119.34Z"/><path d="M231.42,112.06a14,14,0,0,0-.14,2.3v9.71a14.23,14.23,0,0,0,.14,2.32h-2.68a13.73,13.73,0,0,0,.14-2.32V120h-7.24v4.07a14.08,14.08,0,0,0,.14,2.32h-2.68a13.59,13.59,0,0,0,.14-2.32v-9.69a13.73,13.73,0,0,0-.14-2.32h2.68a14.71,14.71,0,0,0-.14,2.3v3.48h7.24v-3.46a13.6,13.6,0,0,0-.14-2.32Z"/><path d="M235.67,121.82a3.35,3.35,0,0,0,.67,2,3,3,0,0,0,4.41.11,2.61,2.61,0,0,0,.52-.94l2.13.68a5.06,5.06,0,0,1-1.1,1.66,5.11,5.11,0,0,1-3.71,1.39c-3.19,0-5.2-2.12-5.2-5.49s2-5.51,5.08-5.51a4.57,4.57,0,0,1,4.48,2.85,7.4,7.4,0,0,1,.52,2.74s0,.09,0,.5Zm5.49-1.78a2.82,2.82,0,0,0-.79-1.73,2.57,2.57,0,0,0-1.94-.72,2.7,2.7,0,0,0-2.7,2.45Z"/><path d="M252.12,125.22a3.91,3.91,0,0,1-1.91,1.13,6.37,6.37,0,0,1-1.67.22c-2.2,0-3.53-1.13-3.53-3a3.2,3.2,0,0,1,2-2.92,13.62,13.62,0,0,1,5.08-.72V119c0-1-.7-1.58-2.07-1.58a3.25,3.25,0,0,0-1.87.52,2,2,0,0,0-.72,1.15l-2.3-.41a3.76,3.76,0,0,1,1.42-2,5.39,5.39,0,0,1,3.44-.92c1.73,0,2.77.31,3.55,1.06a3,3,0,0,1,.85,2.48v4.84a14.49,14.49,0,0,0,.14,2.25h-2.43Zm0-3.75c-3.44.07-4.79.67-4.79,2.07,0,.85.63,1.37,1.64,1.37a3.65,3.65,0,0,0,2.5-1,2.15,2.15,0,0,0,.65-1.58Z"/><path d="M264.77,125.51c0-.22,0-.41,0-.65a3.84,3.84,0,0,1-3.64,1.78,4.58,4.58,0,0,1-3-.92,5.57,5.57,0,0,1-1.87-4.52c0-3.29,1.89-5.38,4.86-5.38a4.27,4.27,0,0,1,2.74.83,4.58,4.58,0,0,1,.92,1c0-.22,0-.22,0-.58,0-.13,0-.47,0-.77v-1.8a18.3,18.3,0,0,0-.13-2.43h2.54a21,21,0,0,0-.13,2.41V124a18.93,18.93,0,0,0,.13,2.43h-2.39Zm-3.21-.79a3,3,0,0,0,2.41-1.19,4.07,4.07,0,0,0,.7-2.41,3.74,3.74,0,0,0-.86-2.39,3.3,3.3,0,0,0-2.34-1c-1.75,0-2.86,1.37-2.86,3.51S259.77,124.72,261.57,124.72Z"/><path d="M271.27,121.82a3.35,3.35,0,0,0,.67,2,3,3,0,0,0,4.41.11,2.62,2.62,0,0,0,.52-.94l2.12.68a5.06,5.06,0,0,1-1.1,1.66,5.11,5.11,0,0,1-3.71,1.39c-3.19,0-5.2-2.12-5.2-5.49s2-5.51,5.08-5.51a4.57,4.57,0,0,1,4.48,2.85,7.39,7.39,0,0,1,.52,2.74s0,.09,0,.5Zm5.49-1.78a2.82,2.82,0,0,0-.79-1.73,2.57,2.57,0,0,0-1.94-.72,2.7,2.7,0,0,0-2.7,2.45Z"/><path d="M287.8,118.33a5.39,5.39,0,0,0-1.6-.29,2.57,2.57,0,0,0-2.09.88,2.9,2.9,0,0,0-.74,1.8v3.33a19,19,0,0,0,.13,2.34h-2.57a19.78,19.78,0,0,0,.13-2.34V118.4a14.25,14.25,0,0,0-.13-2.34h2.45v1.69a3.44,3.44,0,0,1,3.38-1.89,9.33,9.33,0,0,1,1.67.2Z"/><path d="M301.66,122c-1,2.32-2.18,3.39-3.66,3.39-2.05,0-3.53-2.09-3.53-5a7.73,7.73,0,0,1,2-5.24,8.08,8.08,0,0,1,6.19-2.52c4.32,0,7.13,2.63,7.13,6.68A6.94,6.94,0,0,1,305.4,126a11.77,11.77,0,0,1-2.83.76,5.74,5.74,0,0,0-1.1-2.11,9.56,9.56,0,0,0,3.58-1,5,5,0,0,0,2.5-4.5,4.46,4.46,0,0,0-2.21-4,3.94,3.94,0,0,0-1.82-.54A26.07,26.07,0,0,1,301.66,122ZM299,115.54a6,6,0,0,0-2.45,4.86c0,1.48.63,2.65,1.42,2.65.59,0,1.21-.76,1.85-2.3a23.73,23.73,0,0,0,1.49-6.09A4.59,4.59,0,0,0,299,115.54Z"/><path d="M319.55,125.75a12.35,12.35,0,0,0,.11,1.94h-2.11a15.74,15.74,0,0,0,.11-1.94v-1.67c-1.8.54-3,.86-3.84,1a10,10,0,0,0-1.44.38l-.5-2.05a8.52,8.52,0,0,0,1.39-.18v-9.83c-.61,0-.81,0-1.21.07v-1.94a14.69,14.69,0,0,0,1.62.09h5.49a10.81,10.81,0,0,0,1.64-.09v1.12c.32,0,.7,0,1.15,0h4.72a12.9,12.9,0,0,0,1.46-.09c0,.23-.07.59-.13,1.13a21.2,21.2,0,0,1-2.57,8.55,10.79,10.79,0,0,0,3.47,3.17,10.12,10.12,0,0,0-1.08,2,13.27,13.27,0,0,1-3.56-3.4,14.12,14.12,0,0,1-3.62,3.42,7.68,7.68,0,0,0-1.1-2Zm-4.39-10.35h2.5v-2h-2.5Zm0,3.53h2.5V117h-2.5Zm0,4a25.13,25.13,0,0,0,2.5-.58v-1.75h-2.5Zm4.39,2.57a11.08,11.08,0,0,0,3.6-3.17,16.94,16.94,0,0,1-1.33-3.22,22.65,22.65,0,0,1-.83-4.56c-.34,0-.47,0-.76.07v-1.15a6.38,6.38,0,0,0-.68,0Zm3.28-11a17,17,0,0,0,1.49,5.91,18.38,18.38,0,0,0,1.69-5.91Z"/><path d="M331.73,122.06c0-.72,0-1.17,0-1.93a8.38,8.38,0,0,1-1.4,1.35,8.31,8.31,0,0,0-.85-1.91,11.93,11.93,0,0,0,3.22-3.22,8.2,8.2,0,0,0,.81-1.48l1.62,1.13c-.16.23-.22.31-.36.54a13.88,13.88,0,0,1-1.17,1.66v7.4a15,15,0,0,0,.09,2h-2.11a13.11,13.11,0,0,0,.11-1.93ZM335,112a16.46,16.46,0,0,1-1.53,1.85,13.42,13.42,0,0,1-2.77,2.21,5.31,5.31,0,0,0-1-1.64,9.08,9.08,0,0,0,3.76-3.58Zm1,10.61a14.78,14.78,0,0,0-1.69.07v-1.84a11.11,11.11,0,0,0,1.71.09h6v-.9h-5.8a14.58,14.58,0,0,0-1.69.07v-1.75a12.51,12.51,0,0,0,1.71.07h8a10.71,10.71,0,0,0,1.75-.09v1.76a14.91,14.91,0,0,0-1.71-.07H344v.9h.47a11.75,11.75,0,0,0,1.76-.09v1.85a11.06,11.06,0,0,0-1.71-.09H344v3.15c0,1.31-.52,1.67-2.43,1.67-.36,0-1,0-1.85-.05a6.47,6.47,0,0,0-.43-1.78l-.94.83a10.9,10.9,0,0,0-2.32-2.88l1.3-.94Zm1.48-5c-.7,0-1.33,0-1.67.05,0-.54.05-1,.05-1.76v-2.7c0-.76,0-1.12-.05-1.66a15.6,15.6,0,0,0,1.82.07h5.56a15.16,15.16,0,0,0,1.84-.07,16.53,16.53,0,0,0-.07,1.76V116a15.68,15.68,0,0,0,.07,1.76c-.41,0-1-.05-1.66-.05Zm.18,5a16.45,16.45,0,0,1,2.18,2.43l-.45.4a17.77,17.77,0,0,0,2,.18c.54,0,.67-.07.67-.43v-2.57Zm.05-8.66h5.33v-.79h-5.33Zm0,2.25h5.33v-.85h-5.33Z"/><path d="M211,150.84a2.14,2.14,0,1,1-2.14-2.14A2.14,2.14,0,0,1,211,150.84Z"/><path d="M231.42,143.56a14,14,0,0,0-.14,2.3v9.71a14.23,14.23,0,0,0,.14,2.32h-2.68a13.73,13.73,0,0,0,.14-2.32V151.5h-7.24v4.07a14.08,14.08,0,0,0,.14,2.32h-2.68a13.59,13.59,0,0,0,.14-2.32v-9.69a13.73,13.73,0,0,0-.14-2.32h2.68a14.71,14.71,0,0,0-.14,2.3v3.48h7.24v-3.46a13.6,13.6,0,0,0-.14-2.32Z"/><path d="M235.67,153.32a3.35,3.35,0,0,0,.67,2,3,3,0,0,0,4.41.11,2.61,2.61,0,0,0,.52-.94l2.13.68a5.06,5.06,0,0,1-1.1,1.66,5.11,5.11,0,0,1-3.71,1.39c-3.19,0-5.2-2.12-5.2-5.49s2-5.51,5.08-5.51a4.57,4.57,0,0,1,4.48,2.85,7.4,7.4,0,0,1,.52,2.74s0,.09,0,.5Zm5.49-1.78a2.82,2.82,0,0,0-.79-1.73,2.57,2.57,0,0,0-1.94-.72,2.7,2.7,0,0,0-2.7,2.45Z"/><path d="M252.12,156.72a3.91,3.91,0,0,1-1.91,1.13,6.37,6.37,0,0,1-1.67.22c-2.2,0-3.53-1.13-3.53-3a3.2,3.2,0,0,1,2-2.92,13.62,13.62,0,0,1,5.08-.72v-.92c0-1-.7-1.58-2.07-1.58a3.25,3.25,0,0,0-1.87.52,2,2,0,0,0-.72,1.15l-2.3-.41a3.76,3.76,0,0,1,1.42-2,5.39,5.39,0,0,1,3.44-.92c1.73,0,2.77.31,3.55,1.06a3,3,0,0,1,.85,2.48v4.84a14.49,14.49,0,0,0,.14,2.25h-2.43Zm0-3.75c-3.44.07-4.79.67-4.79,2.07,0,.85.63,1.37,1.64,1.37a3.65,3.65,0,0,0,2.5-1,2.15,2.15,0,0,0,.65-1.58Z"/><path d="M264.77,157c0-.22,0-.41,0-.65a3.84,3.84,0,0,1-3.64,1.78,4.58,4.58,0,0,1-3-.92,5.57,5.57,0,0,1-1.87-4.52c0-3.29,1.89-5.38,4.86-5.38a4.27,4.27,0,0,1,2.74.83,4.58,4.58,0,0,1,.92,1c0-.22,0-.22,0-.58,0-.13,0-.47,0-.77V146a18.3,18.3,0,0,0-.13-2.43h2.54A21,21,0,0,0,267,146v9.49a18.93,18.93,0,0,0,.13,2.43h-2.39Zm-3.21-.79A3,3,0,0,0,264,155a4.07,4.07,0,0,0,.7-2.41,3.74,3.74,0,0,0-.86-2.39,3.3,3.3,0,0,0-2.34-1c-1.75,0-2.86,1.37-2.86,3.51S259.77,156.22,261.57,156.22Z"/><path d="M271.27,153.32a3.35,3.35,0,0,0,.67,2,3,3,0,0,0,4.41.11,2.62,2.62,0,0,0,.52-.94l2.12.68a5.06,5.06,0,0,1-1.1,1.66,5.11,5.11,0,0,1-3.71,1.39c-3.19,0-5.2-2.12-5.2-5.49s2-5.51,5.08-5.51a4.57,4.57,0,0,1,4.48,2.85,7.39,7.39,0,0,1,.52,2.74s0,.09,0,.5Zm5.49-1.78a2.82,2.82,0,0,0-.79-1.73,2.57,2.57,0,0,0-1.94-.72,2.7,2.7,0,0,0-2.7,2.45Z"/><path d="M287.8,149.83a5.39,5.39,0,0,0-1.6-.29,2.57,2.57,0,0,0-2.09.88,2.9,2.9,0,0,0-.74,1.8v3.33a19,19,0,0,0,.13,2.34h-2.57a19.78,19.78,0,0,0,.13-2.34V149.9a14.25,14.25,0,0,0-.13-2.34h2.45v1.69a3.44,3.44,0,0,1,3.38-1.89,9.33,9.33,0,0,1,1.67.2Z"/><path d="M296.81,151.23a17.89,17.89,0,0,0-2.27.09v-2.18a12.35,12.35,0,0,0,2.3.13h3.26v-3.11h-2.2a16.84,16.84,0,0,0-2.29.09v-2.18a12.28,12.28,0,0,0,2.32.13h8.21a12.39,12.39,0,0,0,2.34-.13v2.18a17,17,0,0,0-2.3-.09h-3.87v3.11h5a12.46,12.46,0,0,0,2.3-.13v2.18a17.89,17.89,0,0,0-2.27-.09h-5v2.88c0,1.08.09,1.35.49,1.53a4.68,4.68,0,0,0,1.85.23c.65,0,1.75-.05,2.68-.14a8.4,8.4,0,0,0,1.67-.31l.05,2.29a2.07,2.07,0,0,0-.31,0c-.16,0-.16,0-1.46.11-.79.05-2,.11-2.86.11-3.51,0-4.34-.59-4.34-3.13v-3.55Z"/><path d="M321.4,150.4c-.2,4.45-1.89,6.82-6,8.39a5.72,5.72,0,0,0-1.48-2c3.53-1.12,4.93-2.9,5.06-6.39h-4.37a15.77,15.77,0,0,0-2.29.09v-2.14a11.78,11.78,0,0,0,2.32.13h10.53a11.78,11.78,0,0,0,2.32-.13v2.14a15.77,15.77,0,0,0-2.29-.09Zm2.72-4.41a14.77,14.77,0,0,0-2.29-.09h-5.37a14.92,14.92,0,0,0-2.29.09v-2.2a11.51,11.51,0,0,0,2.32.13h5.29a11.3,11.3,0,0,0,2.32-.13Zm1-3.37a12.69,12.69,0,0,1,1.6,2.85l-1.35.5a13.31,13.31,0,0,0-1.58-2.88Zm2.58,2.56a13.07,13.07,0,0,0-1.55-2.79l1.3-.47a11.05,11.05,0,0,1,1.58,2.74Z"/><path d="M335.77,143.72a37.44,37.44,0,0,0-.18,4c-.13,3.51-.52,5.55-1.46,7.4a11.46,11.46,0,0,1-2.48,3.33,6.41,6.41,0,0,0-1.82-1.75,7.39,7.39,0,0,0,1.85-2.07c1.3-2.07,1.71-4.39,1.71-9.44a9.07,9.07,0,0,0-.07-1.64Zm4.77-.22a9.74,9.74,0,0,0-.13,1.71l-.09,10.25a7.24,7.24,0,0,0,2.75-2.05,8.8,8.8,0,0,0,1.76-3.3,7.54,7.54,0,0,0,1.69,1.69,11.18,11.18,0,0,1-2.86,4.2,11.89,11.89,0,0,1-3.83,2.16,7.83,7.83,0,0,0-.77.32l-1.15-1.22a8.08,8.08,0,0,0,.16-1.91l.09-10.15v-.54a7.83,7.83,0,0,0-.07-1.19Z"/><path d="M355.66,153.48c-1,2.32-2.18,3.39-3.66,3.39-2.05,0-3.53-2.09-3.53-5a7.73,7.73,0,0,1,2-5.24,8.08,8.08,0,0,1,6.19-2.52c4.32,0,7.13,2.63,7.13,6.68a6.94,6.94,0,0,1-4.37,6.72,11.77,11.77,0,0,1-2.83.76,5.74,5.74,0,0,0-1.1-2.11,9.56,9.56,0,0,0,3.58-1,5,5,0,0,0,2.5-4.5,4.46,4.46,0,0,0-2.21-4,3.94,3.94,0,0,0-1.82-.54A26.07,26.07,0,0,1,355.66,153.48ZM353,147a6,6,0,0,0-2.45,4.86c0,1.48.63,2.65,1.42,2.65.59,0,1.21-.76,1.85-2.3a23.73,23.73,0,0,0,1.49-6.09A4.59,4.59,0,0,0,353,147Z"/><path d="M371.8,152c0-.52,0-.86,0-1.28a4.77,4.77,0,0,0-.94,1.24,7.3,7.3,0,0,1-1-1.94c.05.61.09,1.4.09,2.59V157a17.79,17.79,0,0,0,.11,2.2h-2a14.69,14.69,0,0,0,.13-2.2v-3.47c0-.68.05-1.62.14-2.48a15.51,15.51,0,0,1-1.58,3.64,5.5,5.5,0,0,0-1.17-1.53,16.84,16.84,0,0,0,2.38-5.56h-.59a6.94,6.94,0,0,0-1.21.07v-1.91a6.94,6.94,0,0,0,1.21.07h.81v-1.46a11.29,11.29,0,0,0-.11-1.87h2a12.65,12.65,0,0,0-.09,1.85v1.48h.41a6.06,6.06,0,0,0,1.06-.07v1.91a5.88,5.88,0,0,0-1-.07H370a10,10,0,0,0,1,2V148a9,9,0,0,0,1.57.09h1v-.76h-.43a13.49,13.49,0,0,0-1.39.05V146a10.37,10.37,0,0,0,1.39.07h.43v-.77h-.74a12.47,12.47,0,0,0-1.51.07v-1.53a9.08,9.08,0,0,0,1.49.09h.76a5.61,5.61,0,0,0-.09-1.3h2a4.4,4.4,0,0,0-.11,1.3h2.32a4.09,4.09,0,0,0-.11-1.3h2a5.08,5.08,0,0,0-.11,1.3h1.17a9.63,9.63,0,0,0,1.49-.09v1.55a8.32,8.32,0,0,0-1.49-.09h-1.17V146h.79c.49,0,1,0,1.37-.07v1.48a8.69,8.69,0,0,0-1.37-.07h-.79v.76h1.28a9,9,0,0,0,1.66-.11v1.69a11.17,11.17,0,0,0-1.67-.09h-3.4v.74h2.34a13.29,13.29,0,0,0,1.67-.07,15,15,0,0,0-.07,1.78v2.68a5.49,5.49,0,0,0,1.21-.09v1.69a7.79,7.79,0,0,0-1.21-.07v1.06c0,1.42-.38,1.69-2.32,1.69l-1.39,0a5.14,5.14,0,0,0-.34-1.6,12.16,12.16,0,0,0,1.55.13c.61,0,.74-.07.74-.41v-.83h-5.92V157a21.14,21.14,0,0,0,.07,2.21h-1.94a17.86,17.86,0,0,0,.09-2.21v-.72a6.28,6.28,0,0,0-1.08.07v-1.67a5.89,5.89,0,0,0,1.08.07Zm1.64-1.6h2.18v-.74h-2.88a13.29,13.29,0,0,0-1.58.07,4.33,4.33,0,0,0,.58.61C372.25,150.35,372.65,150.37,373.44,150.37Zm2.18,2.25v-.83h-2v.83Zm0,2.14v-.83h-2v.83Zm2.09-8.71v-.77h-2.32V146Zm0,2.09v-.76h-2.32v.76Zm1.8,4.48v-.83h-2.18v.83Zm0,2.14v-.83h-2.18v.83Z"/><path d="M396.46,146.95a10.63,10.63,0,0,0,1.42-.07,13.72,13.72,0,0,0-.07,1.66v1.84c0,.29.05.32.41.32s.43,0,.5-.18a7.66,7.66,0,0,0,.13-1.49l0-.2a1.27,1.27,0,0,1,0-.27,7.18,7.18,0,0,0,1.55.67c-.07,2.72-.34,3.1-2.2,3.1a3.62,3.62,0,0,1-1.62-.22c-.38-.2-.49-.45-.49-1.08v-2.5h-2.72a7.29,7.29,0,0,1-.07,1l1-.74a18.39,18.39,0,0,1,1.58,2.11l-1.28,1a9,9,0,0,0-1.4-2.07A4.3,4.3,0,0,1,392,152.1h1a6.19,6.19,0,0,0-.07,1.12h5.15a17.35,17.35,0,0,0,2.16-.11V155a18.5,18.5,0,0,0-2.16-.11h-3.56a14.93,14.93,0,0,0,6.07,2.29,7.3,7.3,0,0,0-1,1.91,15.54,15.54,0,0,1-6.66-3.49c0,.25,0,.65.05,1.15v.88a7.26,7.26,0,0,0,.11,1.62h-2.18a8.13,8.13,0,0,0,.11-1.62v-.86c0-.27,0-.45.05-1.15a12.21,12.21,0,0,1-2.92,2,17.45,17.45,0,0,1-3.49,1.37,6.82,6.82,0,0,0-1.1-1.84,16.27,16.27,0,0,0,6-2.29H386.2a18.38,18.38,0,0,0-2.14.11v-1.85a16.14,16.14,0,0,0,2.12.11H391v-.41a6.6,6.6,0,0,0-1.3-1.22,4.73,4.73,0,0,0,1-.63,28.79,28.79,0,0,1-3,.9c-.85.22-1.33.32-2.23.5l-1,.2-.4-1.8a20.71,20.71,0,0,0,2.83-.36v-1.67h-.76a10.79,10.79,0,0,0-1.48.07v-1.69l.5.05a6.35,6.35,0,0,0-1.37-1.08,7.42,7.42,0,0,0,2.75-3.71l1.94.36s-.22.38-.56,1h2.32a8.7,8.7,0,0,0,1.76-.11v1.46a6.78,6.78,0,0,0,1.44-2.75l1.91.36c-.07.13-.23.49-.49,1.06h3.48a11.51,11.51,0,0,0,2-.11v1.84a13.94,13.94,0,0,0-1.87-.09h-1.33c.22.31.23.34.61,1l-1.4.58Zm-5.74,3.94c.74-.67,1-1.46,1-3a8.09,8.09,0,0,0-.05-1,7.88,7.88,0,0,0,.86.05,7.48,7.48,0,0,0-1.31-1.1l.47-.41a9.19,9.19,0,0,0-1-.05h-1c.27.43.36.58.67,1.15l-1.73.47a7.77,7.77,0,0,0-.79-1.62h-.92a11.58,11.58,0,0,1-1.53,1.76c.31,0,.4,0,.74,0h3.21a9.46,9.46,0,0,0,1.48-.07v1.69a10.05,10.05,0,0,0-1.33-.07h-.81V150c.77-.18,1.08-.25,2-.52Zm2.32-3.94H396a9.77,9.77,0,0,0-.79-1.55H394a11.68,11.68,0,0,1-1.28,1.55Z"/><polygon class="cls-1" points="318.19 92.53 302.73 55.03 287.26 92.53 179.22 92.53 179.22 179.53 426.23 179.53 426.23 92.53 318.19 92.53"/><path d="M221.25,260.34a2.14,2.14,0,1,1-2.14-2.14A2.14,2.14,0,0,1,221.25,260.34Z"/><path d="M231.69,267.39c-1,0-1.57,0-2.3.05a12.85,12.85,0,0,0,.16-2.43v-9.78a17.2,17.2,0,0,0-.14-2.21c.76,0,1,0,2.27,0h4.25c2.79,0,4.36,1.26,4.36,3.51a3.22,3.22,0,0,1-1,2.54,3.05,3.05,0,0,1-1.42.76,3.3,3.3,0,0,1,1.82.83,3.55,3.55,0,0,1,1.12,2.75c0,2.52-1.67,3.94-4.66,3.94Zm4-8.46a1.91,1.91,0,0,0,2.18-2,1.83,1.83,0,0,0-.47-1.33,2.56,2.56,0,0,0-1.73-.56h-3.73v3.85Zm-3.75,6.43h3.87c1.6,0,2.5-.79,2.5-2.25a2,2,0,0,0-.58-1.57,2.94,2.94,0,0,0-2-.61h-3.84Z"/><path d="M242.36,262.25c0-3.35,2.09-5.49,5.37-5.49s5.33,2.13,5.33,5.46-2.11,5.53-5.31,5.53S242.36,265.61,242.36,262.25Zm2.32,0c0,2.21,1.15,3.58,3,3.58s3-1.35,3-3.55-1.1-3.66-3-3.66S244.68,260,244.68,262.25Z"/><path d="M262.94,266.51c0-.22,0-.41,0-.65a3.84,3.84,0,0,1-3.64,1.78,4.58,4.58,0,0,1-3-.92,5.57,5.57,0,0,1-1.87-4.52c0-3.29,1.89-5.38,4.86-5.38a4.27,4.27,0,0,1,2.74.83,4.58,4.58,0,0,1,.92,1c0-.22,0-.22,0-.58,0-.13,0-.47,0-.77v-1.8a18.3,18.3,0,0,0-.13-2.43h2.54a21,21,0,0,0-.13,2.41V265a18.93,18.93,0,0,0,.13,2.43h-2.39Zm-3.21-.79a3,3,0,0,0,2.41-1.19,4.07,4.07,0,0,0,.7-2.41,3.74,3.74,0,0,0-.86-2.39,3.3,3.3,0,0,0-2.34-1c-1.75,0-2.86,1.37-2.86,3.51S257.93,265.72,259.73,265.72Z"/><path d="M267.65,259.29c-.79-1.78-.81-1.84-1-2.23h2.74a10.4,10.4,0,0,0,.68,2.11l2.2,5.11,2-5.1a10.77,10.77,0,0,0,.68-2.12h2.68c-.11.23-.43,1-1,2.23l-4.1,9.63a3.19,3.19,0,0,1-3.31,2,9.33,9.33,0,0,1-1.89-.22l.41-2.05A3,3,0,0,0,269,269a1.5,1.5,0,0,0,1.4-.9l.61-1.39Z"/><path d="M290.8,263c-1,2.32-2.18,3.39-3.66,3.39-2.05,0-3.53-2.09-3.53-5a7.73,7.73,0,0,1,2-5.24,8.08,8.08,0,0,1,6.19-2.52c4.32,0,7.13,2.63,7.13,6.68a6.94,6.94,0,0,1-4.37,6.72,11.77,11.77,0,0,1-2.83.76,5.74,5.74,0,0,0-1.1-2.11,9.56,9.56,0,0,0,3.58-1,5,5,0,0,0,2.5-4.5,4.46,4.46,0,0,0-2.21-4,3.94,3.94,0,0,0-1.82-.54A26.05,26.05,0,0,1,290.8,263Zm-2.65-6.45a6,6,0,0,0-2.45,4.86c0,1.48.63,2.65,1.42,2.65.59,0,1.21-.76,1.85-2.3a23.71,23.71,0,0,0,1.49-6.09A4.58,4.58,0,0,0,288.15,256.54Z"/><path d="M308.69,266.75a12.33,12.33,0,0,0,.11,1.94h-2.11a15.74,15.74,0,0,0,.11-1.94v-1.67c-1.8.54-3,.86-3.84,1a10,10,0,0,0-1.44.38l-.5-2.05a8.52,8.52,0,0,0,1.39-.18v-9.83c-.61,0-.81,0-1.21.07v-1.94a14.72,14.72,0,0,0,1.62.09h5.49a10.81,10.81,0,0,0,1.64-.09v1.12c.32,0,.7,0,1.15,0h4.72a12.9,12.9,0,0,0,1.46-.09c0,.23-.07.59-.13,1.13a21.2,21.2,0,0,1-2.57,8.55,10.79,10.79,0,0,0,3.48,3.17,10.1,10.1,0,0,0-1.08,2,13.27,13.27,0,0,1-3.56-3.4,14.12,14.12,0,0,1-3.62,3.42,7.67,7.67,0,0,0-1.1-2Zm-4.39-10.35h2.5v-2h-2.5Zm0,3.53h2.5V258h-2.5Zm0,4a25.13,25.13,0,0,0,2.5-.58v-1.75h-2.5Zm4.39,2.57a11.08,11.08,0,0,0,3.6-3.17,16.91,16.91,0,0,1-1.33-3.22,22.71,22.71,0,0,1-.83-4.56c-.34,0-.47,0-.76.07v-1.15a6.39,6.39,0,0,0-.68,0Zm3.28-11a17,17,0,0,0,1.49,5.91,18.4,18.4,0,0,0,1.69-5.91Z"/><path d="M320.88,263.06c0-.72,0-1.17,0-1.93a8.38,8.38,0,0,1-1.4,1.35,8.28,8.28,0,0,0-.85-1.91,11.93,11.93,0,0,0,3.22-3.22,8.2,8.2,0,0,0,.81-1.48l1.62,1.13c-.16.23-.22.31-.36.54a14,14,0,0,1-1.17,1.66v7.4a15,15,0,0,0,.09,2h-2.11a13.11,13.11,0,0,0,.11-1.93Zm3.31-10a16.39,16.39,0,0,1-1.53,1.85,13.4,13.4,0,0,1-2.77,2.21,5.31,5.31,0,0,0-1-1.64,9.09,9.09,0,0,0,3.76-3.58Zm1,10.61a14.78,14.78,0,0,0-1.69.07v-1.84a11.11,11.11,0,0,0,1.71.09h6v-.9h-5.8a14.57,14.57,0,0,0-1.69.07v-1.75a12.51,12.51,0,0,0,1.71.07h8a10.71,10.71,0,0,0,1.75-.09v1.76a14.91,14.91,0,0,0-1.71-.07h-.4v.9h.47a11.74,11.74,0,0,0,1.76-.09v1.85a11,11,0,0,0-1.71-.09h-.52v3.15c0,1.31-.52,1.67-2.43,1.67-.36,0-1,0-1.85-.05a6.47,6.47,0,0,0-.43-1.78l-.94.83a10.9,10.9,0,0,0-2.32-2.88l1.3-.94Zm1.48-5c-.7,0-1.33,0-1.67.05,0-.54.05-1,.05-1.76v-2.7c0-.76,0-1.12-.05-1.66a15.6,15.6,0,0,0,1.82.07h5.56a15.16,15.16,0,0,0,1.84-.07,16.53,16.53,0,0,0-.07,1.76V257a15.68,15.68,0,0,0,.07,1.76c-.41,0-1-.05-1.66-.05Zm.18,5a16.48,16.48,0,0,1,2.18,2.43l-.45.4a17.75,17.75,0,0,0,2,.18c.54,0,.67-.07.67-.43v-2.57Zm.05-8.66h5.33v-.79h-5.33Zm0,2.25h5.33v-.85h-5.33Z"/><path d="M221.25,291.84a2.14,2.14,0,1,1-2.14-2.14A2.14,2.14,0,0,1,221.25,291.84Z"/><path d="M231.69,298.9c-1,0-1.57,0-2.3.05a12.86,12.86,0,0,0,.16-2.43v-9.78a17.2,17.2,0,0,0-.14-2.21c.76,0,1,0,2.27,0h4.25c2.79,0,4.36,1.26,4.36,3.51a3.22,3.22,0,0,1-1,2.54,3,3,0,0,1-1.42.76,3.3,3.3,0,0,1,1.82.83,3.56,3.56,0,0,1,1.12,2.75c0,2.52-1.67,3.94-4.66,3.94Zm4-8.46a1.91,1.91,0,0,0,2.18-2,1.83,1.83,0,0,0-.47-1.33,2.56,2.56,0,0,0-1.73-.56h-3.73v3.85Zm-3.75,6.43h3.87c1.6,0,2.5-.79,2.5-2.25a2,2,0,0,0-.58-1.57,2.94,2.94,0,0,0-2-.61h-3.84Z"/><path d="M242.36,293.74c0-3.35,2.09-5.49,5.37-5.49s5.33,2.13,5.33,5.46-2.11,5.53-5.31,5.53S242.36,297.11,242.36,293.74Zm2.32,0c0,2.21,1.15,3.58,3,3.58s3-1.35,3-3.55-1.1-3.66-3-3.66S244.68,291.49,244.68,293.74Z"/><path d="M262.94,298c0-.22,0-.41,0-.65a3.84,3.84,0,0,1-3.64,1.78,4.58,4.58,0,0,1-3-.92,5.57,5.57,0,0,1-1.87-4.52c0-3.29,1.89-5.38,4.86-5.38a4.28,4.28,0,0,1,2.74.83,4.57,4.57,0,0,1,.92,1c0-.22,0-.22,0-.58,0-.13,0-.47,0-.77V287a18.28,18.28,0,0,0-.13-2.43h2.54a21,21,0,0,0-.13,2.41v9.49a19,19,0,0,0,.13,2.43h-2.39Zm-3.21-.79a3,3,0,0,0,2.41-1.19,4.07,4.07,0,0,0,.7-2.41,3.74,3.74,0,0,0-.86-2.39,3.29,3.29,0,0,0-2.34-1c-1.75,0-2.86,1.37-2.86,3.51S257.93,297.22,259.73,297.22Z"/><path d="M267.65,290.79c-.79-1.78-.81-1.84-1-2.23h2.74a10.39,10.39,0,0,0,.68,2.11l2.2,5.11,2-5.1a10.75,10.75,0,0,0,.68-2.12h2.68c-.11.23-.43,1-1,2.23l-4.1,9.63a3.19,3.19,0,0,1-3.31,2,9.3,9.3,0,0,1-1.89-.22l.41-2.05a3,3,0,0,0,1.26.31,1.5,1.5,0,0,0,1.4-.9l.61-1.39Z"/><path d="M286,292.23a17.81,17.81,0,0,0-2.27.09v-2.18a12.31,12.31,0,0,0,2.3.13h3.26v-3.12h-2.2a16.93,16.93,0,0,0-2.29.09v-2.18a12.38,12.38,0,0,0,2.32.13h8.21a12.49,12.49,0,0,0,2.34-.13v2.18a17.08,17.08,0,0,0-2.3-.09h-3.87v3.12h5a12.42,12.42,0,0,0,2.3-.13v2.18a17.8,17.8,0,0,0-2.27-.09h-5v2.88c0,1.08.09,1.35.49,1.53a4.68,4.68,0,0,0,1.85.23c.65,0,1.75-.05,2.68-.14a8.39,8.39,0,0,0,1.67-.31l.05,2.29a2,2,0,0,0-.31,0c-.16,0-.16,0-1.46.11-.79.05-2,.11-2.86.11-3.51,0-4.34-.59-4.34-3.13v-3.55Z"/><path d="M310.55,291.4c-.2,4.45-1.89,6.82-6,8.39a5.72,5.72,0,0,0-1.48-2c3.53-1.12,4.93-2.9,5.06-6.39h-4.38a15.79,15.79,0,0,0-2.29.09v-2.14a11.82,11.82,0,0,0,2.32.13h10.53a11.82,11.82,0,0,0,2.32-.13v2.14a15.79,15.79,0,0,0-2.29-.09Zm2.72-4.41a14.83,14.83,0,0,0-2.29-.09h-5.37a15,15,0,0,0-2.29.09v-2.2a11.52,11.52,0,0,0,2.32.13h5.29a11.31,11.31,0,0,0,2.32-.13Zm1-3.37a12.73,12.73,0,0,1,1.6,2.85l-1.35.5a13.31,13.31,0,0,0-1.58-2.88Zm2.57,2.56a13.1,13.1,0,0,0-1.55-2.79l1.3-.47a11,11,0,0,1,1.58,2.74Z"/><path d="M324.91,284.73a37.44,37.44,0,0,0-.18,4c-.13,3.51-.52,5.54-1.46,7.4a11.47,11.47,0,0,1-2.48,3.33,6.41,6.41,0,0,0-1.82-1.75,7.41,7.41,0,0,0,1.85-2.07c1.3-2.07,1.71-4.39,1.71-9.44a9.08,9.08,0,0,0-.07-1.64Zm4.77-.22a9.69,9.69,0,0,0-.13,1.71l-.09,10.24a7.23,7.23,0,0,0,2.75-2.05,8.8,8.8,0,0,0,1.76-3.3,7.56,7.56,0,0,0,1.69,1.69,11.18,11.18,0,0,1-2.86,4.2,11.88,11.88,0,0,1-3.83,2.16,8.05,8.05,0,0,0-.77.32l-1.15-1.22a8.07,8.07,0,0,0,.16-1.91l.09-10.15v-.54a7.83,7.83,0,0,0-.07-1.19Z"/><path d="M344.8,294.48c-1,2.32-2.18,3.39-3.66,3.39-2.05,0-3.53-2.09-3.53-5a7.74,7.74,0,0,1,2-5.24,8.08,8.08,0,0,1,6.19-2.52c4.32,0,7.13,2.63,7.13,6.68a6.93,6.93,0,0,1-4.37,6.71,11.7,11.7,0,0,1-2.83.76,5.73,5.73,0,0,0-1.1-2.11,9.58,9.58,0,0,0,3.58-1,5,5,0,0,0,2.5-4.5,4.46,4.46,0,0,0-2.21-4,4,4,0,0,0-1.82-.54A26,26,0,0,1,344.8,294.48ZM342.15,288a6,6,0,0,0-2.45,4.86c0,1.48.63,2.65,1.42,2.65.59,0,1.21-.76,1.85-2.3a23.7,23.7,0,0,0,1.49-6.09A4.59,4.59,0,0,0,342.15,288Z"/><path d="M360.95,293c0-.52,0-.86,0-1.28a4.78,4.78,0,0,0-.94,1.24,7.31,7.31,0,0,1-1-1.94c.05.61.09,1.4.09,2.59V298a17.79,17.79,0,0,0,.11,2.2h-2a14.69,14.69,0,0,0,.13-2.2v-3.47c0-.68.05-1.62.14-2.48a15.51,15.51,0,0,1-1.58,3.64,5.51,5.51,0,0,0-1.17-1.53,16.83,16.83,0,0,0,2.38-5.56h-.59a6.84,6.84,0,0,0-1.21.07v-1.91a7.06,7.06,0,0,0,1.21.07h.81v-1.46a11.31,11.31,0,0,0-.11-1.87h2a12.64,12.64,0,0,0-.09,1.85v1.48h.41a6.16,6.16,0,0,0,1.06-.07v1.91a5.79,5.79,0,0,0-1-.07h-.29a10,10,0,0,0,1,2V289a9,9,0,0,0,1.57.09h1v-.76h-.43a13.16,13.16,0,0,0-1.39.05V287a10.29,10.29,0,0,0,1.39.07h.43v-.77H362a12.57,12.57,0,0,0-1.51.07v-1.53a9.08,9.08,0,0,0,1.49.09h.76a5.61,5.61,0,0,0-.09-1.3h2a4.41,4.41,0,0,0-.11,1.3h2.32a4.1,4.1,0,0,0-.11-1.3h2a5.09,5.09,0,0,0-.11,1.3h1.17a9.64,9.64,0,0,0,1.49-.09v1.55a8.31,8.31,0,0,0-1.49-.09h-1.17V287h.79c.49,0,1,0,1.37-.07v1.48a8.61,8.61,0,0,0-1.37-.07h-.79v.76h1.28a9,9,0,0,0,1.66-.11v1.69a11.24,11.24,0,0,0-1.67-.09h-3.4v.74h2.34a13.38,13.38,0,0,0,1.67-.07,15,15,0,0,0-.07,1.78v2.68a5.52,5.52,0,0,0,1.21-.09v1.69a7.91,7.91,0,0,0-1.21-.07v1.06c0,1.42-.38,1.69-2.32,1.69l-1.39,0a5.13,5.13,0,0,0-.34-1.6,12.16,12.16,0,0,0,1.55.13c.61,0,.74-.07.74-.41v-.83h-5.92V298a21.14,21.14,0,0,0,.07,2.21h-1.94a17.87,17.87,0,0,0,.09-2.21v-.72a6.38,6.38,0,0,0-1.08.07v-1.67a5.88,5.88,0,0,0,1.08.07Zm1.64-1.6h2.18v-.74h-2.88a13.52,13.52,0,0,0-1.58.07,4.35,4.35,0,0,0,.58.61C361.4,291.35,361.79,291.37,362.58,291.37Zm2.18,2.25v-.83h-2v.83Zm0,2.14v-.83h-2v.83Zm2.09-8.71v-.77h-2.32V287Zm0,2.09v-.76h-2.32v.76Zm1.8,4.48v-.83h-2.18v.83Zm0,2.14v-.83h-2.18v.83Z"/><path d="M385.61,287.95a10.52,10.52,0,0,0,1.42-.07,13.83,13.83,0,0,0-.07,1.66v1.84c0,.29.05.32.41.32s.43,0,.5-.18A7.65,7.65,0,0,0,388,290l0-.2a1.29,1.29,0,0,1,0-.27,7.16,7.16,0,0,0,1.55.67c-.07,2.72-.34,3.1-2.2,3.1a3.62,3.62,0,0,1-1.62-.22c-.38-.2-.49-.45-.49-1.08v-2.5h-2.72a7.27,7.27,0,0,1-.07,1l1-.74a18.44,18.44,0,0,1,1.58,2.11l-1.28,1a9,9,0,0,0-1.4-2.07,4.3,4.3,0,0,1-1.22,2.32h1a6.19,6.19,0,0,0-.07,1.12h5.15a17.46,17.46,0,0,0,2.16-.11V296a18.52,18.52,0,0,0-2.16-.11h-3.56a14.94,14.94,0,0,0,6.07,2.29,7.31,7.31,0,0,0-1,1.91,15.55,15.55,0,0,1-6.66-3.49c0,.25,0,.65.05,1.15v.88a7.27,7.27,0,0,0,.11,1.62H380a8.15,8.15,0,0,0,.11-1.62v-.86c0-.27,0-.45.05-1.15a12.21,12.21,0,0,1-2.92,2,17.45,17.45,0,0,1-3.49,1.37,6.81,6.81,0,0,0-1.1-1.84,16.28,16.28,0,0,0,6-2.29h-3.31a18.41,18.41,0,0,0-2.14.11v-1.85a16.25,16.25,0,0,0,2.13.11h4.79v-.41a6.59,6.59,0,0,0-1.3-1.22,4.73,4.73,0,0,0,1-.63,28.8,28.8,0,0,1-3,.9c-.85.22-1.33.32-2.23.5l-1,.2-.4-1.8a20.78,20.78,0,0,0,2.83-.36v-1.68h-.76a10.88,10.88,0,0,0-1.48.07v-1.69l.5.05a6.38,6.38,0,0,0-1.37-1.08,7.42,7.42,0,0,0,2.75-3.71l1.94.36s-.22.38-.56,1h2.32a8.71,8.71,0,0,0,1.76-.11v1.46a6.78,6.78,0,0,0,1.44-2.75l1.91.36c-.07.13-.23.49-.49,1.06h3.47a11.58,11.58,0,0,0,2-.11v1.84a14,14,0,0,0-1.87-.09h-1.33c.22.31.23.34.61,1l-1.4.58Zm-5.74,3.94c.74-.67,1-1.46,1-3a8,8,0,0,0-.05-1,7.59,7.59,0,0,0,.86.05,7.44,7.44,0,0,0-1.31-1.1l.47-.41a9.19,9.19,0,0,0-1-.05h-1c.27.43.36.58.67,1.15l-1.73.47a7.8,7.8,0,0,0-.79-1.62H376a11.57,11.57,0,0,1-1.53,1.76c.31,0,.4,0,.74,0h3.21a9.61,9.61,0,0,0,1.48-.07v1.69a10.13,10.13,0,0,0-1.33-.07h-.81V291c.77-.18,1.08-.25,2-.52Zm2.32-3.94h2.94a9.79,9.79,0,0,0-.79-1.55H383.1a11.74,11.74,0,0,1-1.28,1.55Z"/><polygon class="cls-1" points="317.9 233.53 302.44 196.03 286.96 233.53 178.94 233.53 178.94 320.53 425.94 320.53 425.94 233.53 317.9 233.53"/><line class="cls-2" x1="427.43" y1="135.03" x2="504.41" y2="135.42"/><polygon points="499.95 150.36 525.93 135.53 500.11 120.44 499.95 150.36"/><line class="cls-2" x1="426.43" y1="135.03" x2="507.62" y2="185.21"/><polygon points="496.04 195.64 525.93 196.53 511.76 170.19 496.04 195.64"/><line class="cls-2" x1="426.43" y1="135.03" x2="512.36" y2="240.82"/><polygon points="497.99 246.86 525.93 257.53 521.21 227.99 497.99 246.86"/><path d="M555.28,129a2.71,2.71,0,0,0-.31.81,16.92,16.92,0,0,1-3.69,7.54,17.53,17.53,0,0,1-6.7,4.59,6.63,6.63,0,0,0-1.58-2.14,14.65,14.65,0,0,0,3.94-1.84,12.47,12.47,0,0,0,5.46-7.85h-8.57a14.24,14.24,0,0,0-2.27.11v-2.34a12.69,12.69,0,0,0,2.3.13h8.26a6.58,6.58,0,0,0,1.93-.18Z"/><path d="M562,133.87a13.55,13.55,0,0,0-1.62.07V132a7.76,7.76,0,0,0,1.62.11h5.24V131a9.42,9.42,0,0,0-.09-1.42h2.11a8.3,8.3,0,0,0-.05,1.35l0,1.19h1.57a7.76,7.76,0,0,0,1.62-.11V134a13,13,0,0,0-1.64-.07h-1.55l.09,6.86a8.22,8.22,0,0,0,.11,1.53h-2.2a11.14,11.14,0,0,0,.07-1.48l0-4.5c0-.2,0-.9,0-1.12a7.15,7.15,0,0,1-.61,1,17.19,17.19,0,0,1-5.83,4.75,5.66,5.66,0,0,0-1.33-1.69,15.8,15.8,0,0,0,3.87-2.43,13.32,13.32,0,0,0,2.63-3Z"/><path d="M576.61,133a17.7,17.7,0,0,0,2.92.13h9.6A17.7,17.7,0,0,0,592,133v2.5a19.81,19.81,0,0,0-2.94-.09h-9.56a19.81,19.81,0,0,0-2.94.09Z"/><path d="M598.68,132.54c1,.79,1.49,1.28,2.23,2,1,1,1,1,1.12,1.12a22.08,22.08,0,0,0,2.36-2.27,23.76,23.76,0,0,0,2.2-2.94l.11-.16,0-.09c-.18,0-.45,0-.83,0h-8.59a19.62,19.62,0,0,0-2.3.09V128a13.15,13.15,0,0,0,2.34.13l10,0a4.72,4.72,0,0,0,1.49-.14l1.26,1.42a5.63,5.63,0,0,0-.79,1.06,27.84,27.84,0,0,1-5.82,6.82c.76.86,1.44,1.73,2.38,3L604,141.83a29.61,29.61,0,0,0-3.48-4.54,29.07,29.07,0,0,0-3.6-3.48Z"/><path d="M616.12,130.83a20.8,20.8,0,0,1,1.76,4.27l-2,.65a18,18,0,0,0-1.64-4.36Zm10.33.13a3.79,3.79,0,0,0-.25.92,15.37,15.37,0,0,1-2.48,6,13.82,13.82,0,0,1-5.49,4.34,6.54,6.54,0,0,0-1.44-1.78,11.68,11.68,0,0,0,3.06-1.66,10.36,10.36,0,0,0,4.09-6.25,8,8,0,0,0,.32-2.07Zm-6.5-.86a17.7,17.7,0,0,1,1.75,4.14l-2,.63a19.8,19.8,0,0,0-1.64-4.23Z"/><path d="M634.1,142a12.15,12.15,0,0,0,.11-2V128.43a11.61,11.61,0,0,0-.11-1.84h2.47a12,12,0,0,0-.07,1.89v3.35a52.93,52.93,0,0,1,8.17,3.8l-1.26,2.13a42.56,42.56,0,0,0-6.37-3.44,5.85,5.85,0,0,1-.61-.31,9.36,9.36,0,0,1,.07,1.22V140a19.72,19.72,0,0,0,.07,2Z"/><path d="M655.86,137c-1,2.32-2.18,3.39-3.66,3.39-2.05,0-3.53-2.09-3.53-5a7.73,7.73,0,0,1,2-5.24,8.08,8.08,0,0,1,6.19-2.52c4.32,0,7.13,2.63,7.13,6.68a6.94,6.94,0,0,1-4.37,6.72,11.77,11.77,0,0,1-2.83.76,5.74,5.74,0,0,0-1.1-2.11,9.56,9.56,0,0,0,3.58-1,5,5,0,0,0,2.5-4.5,4.46,4.46,0,0,0-2.21-4,3.94,3.94,0,0,0-1.82-.54A26.05,26.05,0,0,1,655.86,137Zm-2.65-6.45a6,6,0,0,0-2.45,4.86c0,1.48.63,2.65,1.42,2.65.59,0,1.21-.76,1.85-2.3a23.71,23.71,0,0,0,1.49-6.09A4.58,4.58,0,0,0,653.22,130.54Z"/><path d="M671.81,140a12.09,12.09,0,0,0,.05,1.39h-1.66v-.79h-1.28v1.69h-1.8a13.67,13.67,0,0,0,.11-1.85v-3.71c0-.36,0-.9.05-1.39a5.47,5.47,0,0,1-1,1.64,7.62,7.62,0,0,0-.68-2.23,10.75,10.75,0,0,0,2-3.78,12.92,12.92,0,0,0,.58-2.57h-.4a9.7,9.7,0,0,0-1.53.09v-1.94a12,12,0,0,0,1.73.11h2.11a11.84,11.84,0,0,0,1.73-.11v1.93a7,7,0,0,0-1.06-.07h-.7a20.37,20.37,0,0,1-1.08,4h1.76a9.82,9.82,0,0,0,1.1-.05c0,.38-.05.79-.05,1.33v.4a12.33,12.33,0,0,0,3.22-4.74H674v1.84h-1.78a8.22,8.22,0,0,0,.07-1.17v-1.53a5.88,5.88,0,0,0-.05-.9,8,8,0,0,0,1.31.05h2.13c.2-.76.27-1.15.38-1.76l2,.25c0,.13-.2.63-.47,1.51h3.28a10.06,10.06,0,0,0,1.58-.09,11.88,11.88,0,0,0-.05,1.33v1a10.86,10.86,0,0,0,.05,1.17h-1.89v-1.75H677a16.41,16.41,0,0,1-1.26,2.52h1.73a9.29,9.29,0,0,0,.74-2l1.76.38a10.46,10.46,0,0,1-.68,1.58h1.3a10.27,10.27,0,0,0,1.49-.07v1.73a12.52,12.52,0,0,0-1.44-.07h-1.67v1.3h1.33a10.08,10.08,0,0,0,1.51-.07v1.62a12.56,12.56,0,0,0-1.49-.07h-1.35v1.31h1.33a10.24,10.24,0,0,0,1.51-.07v1.62a12.17,12.17,0,0,0-1.49-.07h-1.35v1.31h1.76a10.3,10.3,0,0,0,1.69-.09V142a13.75,13.75,0,0,0-1.73-.11h-5.62v.81h-1.91a14.89,14.89,0,0,0,.11-2v-4.5c0-.7,0-1.12,0-1.24a6.32,6.32,0,0,1-.81,1,7.43,7.43,0,0,0-.67-1.17Zm-2.88-1.15h1.28V134.1h-1.28Zm8.28-4.16v-1.3H675v1.3ZM675,137.51h2.18v-1.31H675Zm0,2.79h2.18V139H675Z"/><path d="M684.1,129.1a7.72,7.72,0,0,0,1.44.09H689a9.22,9.22,0,0,0,1.44-.07V131a13.09,13.09,0,0,0-1.37-.05h-3.53a11.25,11.25,0,0,0-1.44.07Zm.59-2.54a8,8,0,0,0,1.46.09h2.4a8.18,8.18,0,0,0,1.46-.09v1.8a11.57,11.57,0,0,0-1.46-.07h-2.4a11.19,11.19,0,0,0-1.46.07ZM689.92,141a8.5,8.5,0,0,0,.07,1.39h-1.71v-.63H686.5v.88h-1.8c.05-.59.09-1.19.09-1.76v-2.67a12.09,12.09,0,0,0-.07-1.42,9.83,9.83,0,0,0,1.4.07h2.63a9,9,0,0,0,1.22-.05,10.12,10.12,0,0,0-.05,1.3v2.25a9.74,9.74,0,0,0,1.12-4.16l1.55.34a16.53,16.53,0,0,1-1.21,4.93l-1.46-.86Zm-5.17-9.25a9.09,9.09,0,0,0,1.13.05h3a7.55,7.55,0,0,0,1.1-.05v1.67a9.69,9.69,0,0,0-1.1-.05h-3a8.89,8.89,0,0,0-1.13.05Zm0,2.52a9.11,9.11,0,0,0,1.13.05h3a7.69,7.69,0,0,0,1.12-.05V136a9.09,9.09,0,0,0-1.13-.05h-3a9.58,9.58,0,0,0-1.12.05Zm1.69,5.91h1.84v-1.8h-1.84Zm5.08-11c1,.32,1.37.47,2.05.74a6.55,6.55,0,0,0,.29-1.46h-1.19a13.29,13.29,0,0,0-1.93.09V126.7a15.23,15.23,0,0,0,2,.11h5.73a14,14,0,0,0,1.69-.07c0,.29,0,.31-.11,1.57a29.26,29.26,0,0,1-.49,4.5c-.32,1.42-.83,1.8-2.3,1.8a12.3,12.3,0,0,1-1.42-.07,6.77,6.77,0,0,0-.45-1.8l.11,0a9.42,9.42,0,0,0-1-.61,8.85,8.85,0,0,1-3.31,3.13,6,6,0,0,0-1.26-1.44,6.44,6.44,0,0,0,3-2.48c-.76-.32-1.1-.47-2.12-.83Zm3.13,10.95c0,.41.09.47.77.47,1,0,1.26-.05,1.39-.32a7.12,7.12,0,0,0,.2-2,6.34,6.34,0,0,0,1.67.56c-.2,3.1-.52,3.44-3.11,3.44-2.21,0-2.67-.22-2.67-1.33v-3.71a11.26,11.26,0,0,0-.09-1.33h1.93a5.12,5.12,0,0,0-.09,1.15Zm.16-6.39a15.3,15.3,0,0,1,2.79,2.5l-1.35,1.17a10.93,10.93,0,0,0-2.72-2.67Zm.85-5.28a9.49,9.49,0,0,1-.5,2.18l1.51.81-.79,1.33a6.39,6.39,0,0,0,1,.07c.56,0,.74-.14.9-.77a18.29,18.29,0,0,0,.36-3.62Zm3.53,7.54a21.62,21.62,0,0,1,2,4.19l-1.53.94a13.78,13.78,0,0,0-1.91-4.36Z"/><path d="M546.76,192.14a2.11,2.11,0,0,0-.09.36l0,.31-.09.52-.05.43c-.76,5.17-2.16,8.71-4.57,11.49a7.79,7.79,0,0,0-2.05-1.55,12.12,12.12,0,0,0,2.57-3.83,21.89,21.89,0,0,0,1.69-6.18,13.22,13.22,0,0,0,.16-1.75v-.25Zm5.11-.45a22.32,22.32,0,0,0,.76,4.14,17.44,17.44,0,0,0,4,7.78,7.42,7.42,0,0,0-2,1.66,23.86,23.86,0,0,1-4.77-11.85,7.56,7.56,0,0,0-.25-1.3Zm5.11,1.06a2.08,2.08,0,1,1-2.09-2.07A2.09,2.09,0,0,1,557,192.75Zm-3.26,0a1.18,1.18,0,1,0,1.17-1.17A1.17,1.17,0,0,0,553.73,192.75Z"/><path d="M573.41,196.48a8.15,8.15,0,0,0-.5,1.13,12.73,12.73,0,0,1-4.18,6.09,16,16,0,0,1-4.72,2.45,6.28,6.28,0,0,0-1.4-2.09,11.69,11.69,0,0,0,5-2.38,9.37,9.37,0,0,0,2.9-4.21h-8.77a18.28,18.28,0,0,0-2.3.09v-2.2a12.8,12.8,0,0,0,2.34.13h8.57a7.85,7.85,0,0,0,2-.16ZM561,191a10.22,10.22,0,0,0,2.11.13h6.28a10.22,10.22,0,0,0,2.11-.13v2.21a13.82,13.82,0,0,0-2.07-.09H563a13.82,13.82,0,0,0-2.07.09Z"/><path d="M589.9,191.6a11,11,0,0,0-.63,1.3,30,30,0,0,1-2.54,5.1,43.22,43.22,0,0,1,4,3.82L589,203.67a26.8,26.8,0,0,0-3.66-3.8,20.63,20.63,0,0,1-2.81,3,22.87,22.87,0,0,1-4.29,3,5.59,5.59,0,0,0-1.58-1.87,19.46,19.46,0,0,0,6.95-5.56,32.23,32.23,0,0,0-4.77-3.24l1.58-1.58c1.31.77,2.09,1.28,3,1.91,1.35,1,1.35,1,1.49,1.06a22,22,0,0,0,2.54-5.8Z"/><path d="M594.61,197a17.7,17.7,0,0,0,2.92.13h9.6A17.7,17.7,0,0,0,610,197v2.5a19.81,19.81,0,0,0-2.94-.09h-9.56a19.81,19.81,0,0,0-2.94.09Z"/><path d="M627.14,193.46a3.23,3.23,0,0,0-.56,1.21,30.2,30.2,0,0,1-2.3,5,17.58,17.58,0,0,1-8.21,6.88,5.71,5.71,0,0,0-1.49-1.85,18.14,18.14,0,0,0,3.51-1.8,13.08,13.08,0,0,0,3-2.5,20.36,20.36,0,0,0-3.69-2.57l1.37-1.6a23.44,23.44,0,0,1,3.62,2.41,17.22,17.22,0,0,0,2-4.25l-5.6.05a18.64,18.64,0,0,1-4.21,4.84,5.72,5.72,0,0,0-1.8-1.44,15.47,15.47,0,0,0,4.52-5.13,11,11,0,0,0,1-2.5l2.34.52a9.51,9.51,0,0,0-.54,1,9,9,0,0,1-.43.86c.29,0,.29,0,4.68-.07a4.73,4.73,0,0,0,1.58-.22Z"/><path d="M646.34,205.84a13.5,13.5,0,0,0-2-.11H632.93v.85h-2.12a16.89,16.89,0,0,0,.11-2.09V192.72c0-.76,0-1.33-.07-1.93a15,15,0,0,0,1.94.09H644a12.5,12.5,0,0,0,2.13-.13v2.11a13.45,13.45,0,0,0-2.11-.11H632.93v11.11h11.43a10.47,10.47,0,0,0,2-.11Zm-2.72-2.72a46.29,46.29,0,0,0-3.78-3.56,21.4,21.4,0,0,1-5.11,3.91,11.51,11.51,0,0,0-1.44-1.55,20,20,0,0,0,5.06-3.58,40,40,0,0,0-4.16-2.85l1.37-1.4c2.41,1.58,2.43,1.6,4.09,2.81A13.05,13.05,0,0,0,642,193l2,.94a9.35,9.35,0,0,0-.56.92,19.77,19.77,0,0,1-2.2,3.24c1.39,1.1,2.43,2,4,3.44Z"/><path d="M652.89,198a12.48,12.48,0,0,0-1.53.09v-1.28a17.91,17.91,0,0,1-2.25,2,6.26,6.26,0,0,0-1.39-1.76,13.88,13.88,0,0,0,4.74-5.17,5.59,5.59,0,0,0,.72-1.82l2.16.77a5.1,5.1,0,0,0-.49.92,20,20,0,0,1-2.9,4.38,9.27,9.27,0,0,0,.94,0h6.63c.43,0,.68,0,1.12,0a18,18,0,0,1-3-4.52,7.36,7.36,0,0,0-.38-.76l2-.77a6.74,6.74,0,0,0,.7,1.57,14,14,0,0,0,5,5.22,8.4,8.4,0,0,0-1.37,1.94,18.33,18.33,0,0,1-2.23-1.89v.61c0,3.73-.31,6.57-.76,7.53-.4.79-1,1-2.65,1-.36,0-.65,0-1.85-.07a7.72,7.72,0,0,0-.54-2.11,14.81,14.81,0,0,0,2.18.23c.67,0,.86-.07,1-.34a17.69,17.69,0,0,0,.56-4.79v-1h-3.46a9.58,9.58,0,0,1-1.4,4.61,10.43,10.43,0,0,1-4.57,4,6.38,6.38,0,0,0-1.31-1.76,8.5,8.5,0,0,0,2.79-1.66,7,7,0,0,0,2.36-4.11,8.92,8.92,0,0,0,.11-1Z"/><path d="M667.65,199.24c0-.68,0-1.12.05-2a13.86,13.86,0,0,1-1.26,1.87,11.39,11.39,0,0,0-.81-2.14,13,13,0,0,0,2.66-4.48,10.42,10.42,0,0,0,.7-2.56l2,.49a23.62,23.62,0,0,1-1.51,4.05v10.1c0,.81,0,1.4.09,2.09h-2.07a15.42,15.42,0,0,0,.11-2.11Zm3.1,7.45a17.84,17.84,0,0,0,.09-2.23v-7.92a15,15,0,0,0-.11-2h2a15.56,15.56,0,0,0-.09,2.05v7.54h7.94a14.53,14.53,0,0,0,2-.09v1.93a15.84,15.84,0,0,0-2-.11h-7.92v.86Zm2.05-13.43a15.31,15.31,0,0,0-1.69.07v-1.87a12.64,12.64,0,0,0,1.91.09h3.2c.07-.63.09-.79.14-1.49l2,.11c-.16.92-.16.92-.23,1.39h2.72a10.86,10.86,0,0,0,1.87-.11v1.89a16.13,16.13,0,0,0-1.66-.07h-3.28c-.11.52-.11.52-.25,1.19h2.57a15.07,15.07,0,0,0,1.53-.05,15.75,15.75,0,0,0-.07,1.76v5.46c0,.74,0,1.06.05,1.6-.67,0-1-.05-1.53-.05h-4.63c-.54,0-.83,0-1.51.05,0-.43.05-.86.05-1.42v-5.91a14,14,0,0,0-.05-1.48c.41,0,.7,0,1.46,0h.27c.13-.5.18-.74.27-1.19Zm3,3.65h3.93V196h-3.93Zm0,2.3h3.93v-1h-3.93Zm0,2.41h3.93v-1.06h-3.93Z"/><path d="M691.86,201c-1,2.32-2.18,3.39-3.66,3.39-2.05,0-3.53-2.09-3.53-5a7.73,7.73,0,0,1,2-5.24,8.08,8.08,0,0,1,6.19-2.52c4.32,0,7.13,2.63,7.13,6.68a6.94,6.94,0,0,1-4.37,6.72,11.77,11.77,0,0,1-2.83.76,5.74,5.74,0,0,0-1.1-2.11,9.56,9.56,0,0,0,3.58-1,5,5,0,0,0,2.5-4.5,4.46,4.46,0,0,0-2.21-4,3.94,3.94,0,0,0-1.82-.54A26.05,26.05,0,0,1,691.86,201Zm-2.65-6.45a6,6,0,0,0-2.45,4.86c0,1.48.63,2.65,1.42,2.65.59,0,1.21-.76,1.85-2.3a23.71,23.71,0,0,0,1.49-6.09A4.58,4.58,0,0,0,689.22,194.54Z"/><path d="M707.81,204a12.09,12.09,0,0,0,.05,1.39h-1.66v-.79h-1.28v1.69h-1.8a13.67,13.67,0,0,0,.11-1.85v-3.71c0-.36,0-.9.05-1.39a5.47,5.47,0,0,1-1,1.64,7.62,7.62,0,0,0-.68-2.23,10.75,10.75,0,0,0,2-3.78,12.92,12.92,0,0,0,.58-2.57h-.4a9.7,9.7,0,0,0-1.53.09v-1.94a12,12,0,0,0,1.73.11h2.11a11.84,11.84,0,0,0,1.73-.11v1.93a7,7,0,0,0-1.06-.07h-.7a20.37,20.37,0,0,1-1.08,4h1.76a9.82,9.82,0,0,0,1.1-.05c0,.38-.05.79-.05,1.33v.4a12.33,12.33,0,0,0,3.22-4.74H710v1.84h-1.78a8.22,8.22,0,0,0,.07-1.17v-1.53a5.88,5.88,0,0,0-.05-.9,8,8,0,0,0,1.31.05h2.13c.2-.76.27-1.15.38-1.76l2,.25c0,.13-.2.63-.47,1.51h3.28a10.06,10.06,0,0,0,1.58-.09,11.88,11.88,0,0,0-.05,1.33v1a10.86,10.86,0,0,0,.05,1.17h-1.89v-1.75H713a16.41,16.41,0,0,1-1.26,2.52h1.73a9.29,9.29,0,0,0,.74-2l1.76.38a10.46,10.46,0,0,1-.68,1.58h1.3a10.27,10.27,0,0,0,1.49-.07v1.73a12.52,12.52,0,0,0-1.44-.07h-1.67v1.3h1.33a10.08,10.08,0,0,0,1.51-.07v1.62a12.56,12.56,0,0,0-1.49-.07h-1.35v1.31h1.33a10.24,10.24,0,0,0,1.51-.07v1.62a12.17,12.17,0,0,0-1.49-.07h-1.35v1.31h1.76a10.3,10.3,0,0,0,1.69-.09V206a13.75,13.75,0,0,0-1.73-.11h-5.62v.81h-1.91a14.89,14.89,0,0,0,.11-2v-4.5c0-.7,0-1.12,0-1.24a6.32,6.32,0,0,1-.81,1,7.43,7.43,0,0,0-.67-1.17Zm-2.88-1.15h1.28V198.1h-1.28Zm8.28-4.16v-1.3H711v1.3ZM711,201.51h2.18v-1.31H711Zm0,2.79h2.18V203H711Z"/><path d="M720.1,193.1a7.72,7.72,0,0,0,1.44.09H725a9.22,9.22,0,0,0,1.44-.07V195a13.09,13.09,0,0,0-1.37-.05h-3.53a11.25,11.25,0,0,0-1.44.07Zm.59-2.54a8,8,0,0,0,1.46.09h2.4a8.18,8.18,0,0,0,1.46-.09v1.8a11.57,11.57,0,0,0-1.46-.07h-2.4a11.19,11.19,0,0,0-1.46.07ZM725.92,205a8.5,8.5,0,0,0,.07,1.39h-1.71v-.63H722.5v.88h-1.8c.05-.59.09-1.19.09-1.76v-2.67a12.09,12.09,0,0,0-.07-1.42,9.83,9.83,0,0,0,1.4.07h2.63a9,9,0,0,0,1.22-.05,10.12,10.12,0,0,0-.05,1.3v2.25a9.74,9.74,0,0,0,1.12-4.16l1.55.34a16.53,16.53,0,0,1-1.21,4.93l-1.46-.86Zm-5.17-9.25a9.09,9.09,0,0,0,1.13.05h3a7.55,7.55,0,0,0,1.1-.05v1.67a9.69,9.69,0,0,0-1.1-.05h-3a8.89,8.89,0,0,0-1.13.05Zm0,2.52a9.11,9.11,0,0,0,1.13.05h3a7.69,7.69,0,0,0,1.12-.05V200a9.09,9.09,0,0,0-1.13-.05h-3a9.58,9.58,0,0,0-1.12.05Zm1.69,5.91h1.84v-1.8h-1.84Zm5.08-11c1,.32,1.37.47,2.05.74a6.55,6.55,0,0,0,.29-1.46h-1.19a13.29,13.29,0,0,0-1.93.09V190.7a15.23,15.23,0,0,0,2,.11h5.73a14,14,0,0,0,1.69-.07c0,.29,0,.31-.11,1.57a29.26,29.26,0,0,1-.49,4.5c-.32,1.42-.83,1.8-2.3,1.8a12.3,12.3,0,0,1-1.42-.07,6.77,6.77,0,0,0-.45-1.8l.11,0a9.42,9.42,0,0,0-1-.61,8.85,8.85,0,0,1-3.31,3.13,6,6,0,0,0-1.26-1.44,6.44,6.44,0,0,0,3-2.48c-.76-.32-1.1-.47-2.12-.83Zm3.13,10.95c0,.41.09.47.77.47,1,0,1.26-.05,1.39-.32a7.12,7.12,0,0,0,.2-2,6.34,6.34,0,0,0,1.67.56c-.2,3.1-.52,3.44-3.11,3.44-2.21,0-2.67-.22-2.67-1.33v-3.71a11.26,11.26,0,0,0-.09-1.33h1.93a5.12,5.12,0,0,0-.09,1.15Zm.16-6.39a15.3,15.3,0,0,1,2.79,2.5l-1.35,1.17a10.93,10.93,0,0,0-2.72-2.67Zm.85-5.28a9.49,9.49,0,0,1-.5,2.18l1.51.81-.79,1.33a6.39,6.39,0,0,0,1,.07c.56,0,.74-.14.9-.77a18.29,18.29,0,0,0,.36-3.62Zm3.53,7.54a21.62,21.62,0,0,1,2,4.19l-1.53.94a13.78,13.78,0,0,0-1.91-4.36Z"/><path d="M540,261.17a3.25,3.25,0,0,0,.65-.54c.52-.52,2.29-2.61,3.22-3.82a5.41,5.41,0,0,1,1.35-1.42,2.16,2.16,0,0,1,1.22-.36c.88,0,1.31.29,2.68,1.84a65.41,65.41,0,0,0,5.83,5.76,14.82,14.82,0,0,0,1.71,1.35l-1.13,2.47a92.1,92.1,0,0,1-7.62-7.62c-1.15-1.26-1.15-1.26-1.46-1.26s-.36.05-1.1,1-2,2.5-3.22,4c-.27.31-.36.43-.61.76Z"/><path d="M562.12,256.83a20.8,20.8,0,0,1,1.76,4.27l-2,.65a18,18,0,0,0-1.64-4.36Zm10.33.13a3.79,3.79,0,0,0-.25.92,15.37,15.37,0,0,1-2.48,6,13.82,13.82,0,0,1-5.49,4.34,6.54,6.54,0,0,0-1.44-1.78,11.68,11.68,0,0,0,3.06-1.66,10.36,10.36,0,0,0,4.09-6.25,8,8,0,0,0,.32-2.07Zm-6.5-.86a17.7,17.7,0,0,1,1.75,4.14l-2,.63a19.8,19.8,0,0,0-1.64-4.23Z"/><path d="M590.74,255.84a3.77,3.77,0,0,0-.56,1.21c-2.14,5.89-4.93,9-10.37,11.51a6.27,6.27,0,0,0-1.49-1.87,16.2,16.2,0,0,0,6.46-4.3,21.28,21.28,0,0,0-3.69-2.56l1.37-1.6a24.79,24.79,0,0,1,3.62,2.41,17.56,17.56,0,0,0,2-4.25l-5.6.05a19.38,19.38,0,0,1-4.21,4.84,5.71,5.71,0,0,0-1.8-1.44,15.8,15.8,0,0,0,4.5-5.15,9.69,9.69,0,0,0,1.06-2.5l2.34.52a11,11,0,0,0-.54,1c-.31.63-.34.7-.43.86l.5,0h.43l3.75,0c.38,0,.79,0,1-.07a11.48,11.48,0,0,0-1.3-2l1.39-.41a11.1,11.1,0,0,1,1.66,2.79l-.67.22Zm1.13-1.24a13.11,13.11,0,0,0-1.6-2.75l1.33-.43a10.24,10.24,0,0,1,1.66,2.7Z"/><path d="M595.54,255.37a8.74,8.74,0,0,0-1.28.07v-1.94a9.32,9.32,0,0,0,1.55.09h2.3c.56,0,1.06,0,1.42-.07v1.93a8.07,8.07,0,0,0-1.24-.07h-.36v7.26c.63-.27,1-.43,1.89-.9v1.94a34.74,34.74,0,0,1-5,2.2l-.36.16-.54-2.05a10.77,10.77,0,0,0,2.09-.61v-8Zm6.32-.85c-.65,0-1.3,0-1.91.07v-1.94a15.35,15.35,0,0,0,2,.11h6.45a11.34,11.34,0,0,0,1.94-.11v2a17.78,17.78,0,0,0-1.89-.09H606c-.2.45-.36.79-.56,1.21h2.4l.79,0c.2,0,.76,0,1-.05,0,.41-.05.94-.05,1.58v6.14a17.26,17.26,0,0,0,.07,1.8l-.2,0c-.14,0-.61,0-1.4,0h-1a9.92,9.92,0,0,0,4.05,1.76,8.39,8.39,0,0,0-1.24,1.76,14.2,14.2,0,0,1-4.38-2.38l1.19-1.15h-4.14l1.42,1.15a12.18,12.18,0,0,1-4.65,2.41A7.86,7.86,0,0,0,598,267a9,9,0,0,0,4.27-1.84h-.47c-.63,0-1.06,0-1.44.05a17.41,17.41,0,0,0,.07-1.78v-6.1c0-.58,0-1.28-.07-1.64a14.66,14.66,0,0,0,1.49,0h1.46a12.38,12.38,0,0,0,.54-1.21Zm.45,3.82h5.29v-1h-5.29Zm0,2.54h5.29v-1h-5.29Zm0,2.65h5.29v-1.1h-5.29Z"/><path d="M624.76,252.79a14.14,14.14,0,0,0,1.93-.09,17.07,17.07,0,0,0-.09,1.85v11.81a18.29,18.29,0,0,0,.11,2.18h-2.16v-1h-8.43v1H614a17,17,0,0,0,.11-2V254.63c0-.7,0-1.33-.09-1.93a16.14,16.14,0,0,0,2,.09Zm-.22,4.21v-2.29h-8.43V257Zm-8.43,4.21h8.43V258.9h-8.43Zm0,4.41h8.43v-2.52h-8.43Z"/><path d="M637.86,263c-1,2.32-2.18,3.39-3.66,3.39-2.05,0-3.53-2.09-3.53-5a7.73,7.73,0,0,1,2-5.24,8.08,8.08,0,0,1,6.19-2.52c4.32,0,7.13,2.63,7.13,6.68a6.94,6.94,0,0,1-4.37,6.72,11.77,11.77,0,0,1-2.83.76,5.74,5.74,0,0,0-1.1-2.11,9.56,9.56,0,0,0,3.58-1,5,5,0,0,0,2.5-4.5,4.46,4.46,0,0,0-2.21-4,3.94,3.94,0,0,0-1.82-.54A26.05,26.05,0,0,1,637.86,263Zm-2.65-6.45a6,6,0,0,0-2.45,4.86c0,1.48.63,2.65,1.42,2.65.59,0,1.21-.76,1.85-2.3a23.71,23.71,0,0,0,1.49-6.09A4.58,4.58,0,0,0,635.22,256.54Z"/><path d="M653.81,266a12.09,12.09,0,0,0,.05,1.39h-1.66v-.79h-1.28v1.69h-1.8a13.67,13.67,0,0,0,.11-1.85v-3.71c0-.36,0-.9.05-1.39a5.47,5.47,0,0,1-1,1.64,7.62,7.62,0,0,0-.68-2.23,10.75,10.75,0,0,0,2-3.78,12.92,12.92,0,0,0,.58-2.57h-.4a9.7,9.7,0,0,0-1.53.09v-1.94a12,12,0,0,0,1.73.11h2.11a11.84,11.84,0,0,0,1.73-.11v1.93a7,7,0,0,0-1.06-.07h-.7a20.37,20.37,0,0,1-1.08,4h1.76a9.82,9.82,0,0,0,1.1-.05c0,.38-.05.79-.05,1.33v.4a12.33,12.33,0,0,0,3.22-4.74H656v1.84h-1.78a8.22,8.22,0,0,0,.07-1.17v-1.53a5.88,5.88,0,0,0-.05-.9,8,8,0,0,0,1.31.05h2.13c.2-.76.27-1.15.38-1.76l2,.25c0,.13-.2.63-.47,1.51h3.28a10.06,10.06,0,0,0,1.58-.09,11.88,11.88,0,0,0-.05,1.33v1a10.86,10.86,0,0,0,.05,1.17h-1.89v-1.75H659a16.41,16.41,0,0,1-1.26,2.52h1.73a9.29,9.29,0,0,0,.74-2l1.76.38a10.46,10.46,0,0,1-.68,1.58h1.3a10.27,10.27,0,0,0,1.49-.07v1.73a12.52,12.52,0,0,0-1.44-.07h-1.67v1.3h1.33a10.08,10.08,0,0,0,1.51-.07v1.62a12.56,12.56,0,0,0-1.49-.07h-1.35v1.31h1.33a10.24,10.24,0,0,0,1.51-.07v1.62a12.17,12.17,0,0,0-1.49-.07h-1.35v1.31h1.76a10.3,10.3,0,0,0,1.69-.09V268a13.75,13.75,0,0,0-1.73-.11h-5.62v.81h-1.91a14.89,14.89,0,0,0,.11-2v-4.5c0-.7,0-1.12,0-1.24a6.32,6.32,0,0,1-.81,1,7.43,7.43,0,0,0-.67-1.17Zm-2.88-1.15h1.28V260.1h-1.28Zm8.28-4.16v-1.3H657v1.3ZM657,263.51h2.18v-1.31H657Zm0,2.79h2.18V265H657Z"/><path d="M666.1,255.1a7.72,7.72,0,0,0,1.44.09H671a9.22,9.22,0,0,0,1.44-.07V257a13.09,13.09,0,0,0-1.37-.05h-3.53a11.25,11.25,0,0,0-1.44.07Zm.59-2.54a8,8,0,0,0,1.46.09h2.4a8.18,8.18,0,0,0,1.46-.09v1.8a11.57,11.57,0,0,0-1.46-.07h-2.4a11.19,11.19,0,0,0-1.46.07ZM671.92,267a8.5,8.5,0,0,0,.07,1.39h-1.71v-.63H668.5v.88h-1.8c.05-.59.09-1.19.09-1.76v-2.67a12.09,12.09,0,0,0-.07-1.42,9.83,9.83,0,0,0,1.4.07h2.63a9,9,0,0,0,1.22-.05,10.12,10.12,0,0,0-.05,1.3v2.25a9.74,9.74,0,0,0,1.12-4.16l1.55.34a16.53,16.53,0,0,1-1.21,4.93l-1.46-.86Zm-5.17-9.25a9.09,9.09,0,0,0,1.13.05h3a7.55,7.55,0,0,0,1.1-.05v1.67a9.69,9.69,0,0,0-1.1-.05h-3a8.89,8.89,0,0,0-1.13.05Zm0,2.52a9.11,9.11,0,0,0,1.13.05h3a7.69,7.69,0,0,0,1.12-.05V262a9.09,9.09,0,0,0-1.13-.05h-3a9.58,9.58,0,0,0-1.12.05Zm1.69,5.91h1.84v-1.8h-1.84Zm5.08-11c1,.32,1.37.47,2.05.74a6.55,6.55,0,0,0,.29-1.46h-1.19a13.29,13.29,0,0,0-1.93.09V252.7a15.23,15.23,0,0,0,2,.11h5.73a14,14,0,0,0,1.69-.07c0,.29,0,.31-.11,1.57a29.26,29.26,0,0,1-.49,4.5c-.32,1.42-.83,1.8-2.3,1.8a12.3,12.3,0,0,1-1.42-.07,6.77,6.77,0,0,0-.45-1.8l.11,0a9.42,9.42,0,0,0-1-.61,8.85,8.85,0,0,1-3.31,3.13,6,6,0,0,0-1.26-1.44,6.44,6.44,0,0,0,3-2.48c-.76-.32-1.1-.47-2.12-.83Zm3.13,10.95c0,.41.09.47.77.47,1,0,1.26-.05,1.39-.32a7.12,7.12,0,0,0,.2-2,6.34,6.34,0,0,0,1.67.56c-.2,3.1-.52,3.44-3.11,3.44-2.21,0-2.67-.22-2.67-1.33v-3.71a11.26,11.26,0,0,0-.09-1.33h1.93a5.12,5.12,0,0,0-.09,1.15Zm.16-6.39a15.3,15.3,0,0,1,2.79,2.5l-1.35,1.17a10.93,10.93,0,0,0-2.72-2.67Zm.85-5.28a9.49,9.49,0,0,1-.5,2.18l1.51.81-.79,1.33a6.39,6.39,0,0,0,1,.07c.56,0,.74-.14.9-.77a18.29,18.29,0,0,0,.36-3.62Zm3.53,7.54a21.62,21.62,0,0,1,2,4.19l-1.53.94a13.78,13.78,0,0,0-1.91-4.36Z"/></g></g></svg>